<?xml version="1.0" encoding="UTF-8"?>
<svg id="Layer_1" data-name="Layer 1" xmlns="http://www.w3.org/2000/svg" viewBox="0 0 3078.11 2000">
  <defs>
    <style>
      .cls-1 {
        stroke-width: 11px;
      }

      .cls-1, .cls-2 {
        fill: none;
        stroke: #231f20;
        stroke-linecap: round;
        stroke-linejoin: round;
      }

      .cls-3, .cls-4, .cls-5 {
        stroke-width: 0px;
      }

      .cls-4 {
        fill: #fff;
      }

      .cls-2 {
        stroke-width: 7px;
      }

      .cls-5 {
        fill: #231f20;
      }
    </style>
  </defs>
  <rect class="cls-4" width="3078.11" height="2000"/>
  <polygon class="cls-1" points="1651.72 337.2 1426.39 337.2 1267.06 496.53 1267.06 721.86 1426.39 881.18 1651.72 881.18 1811.05 721.86 1811.05 496.53 1651.72 337.2"/>
  <polygon class="cls-2" points="1632.25 384.19 1445.86 384.19 1314.05 515.99 1314.05 702.39 1445.86 834.19 1632.25 834.19 1764.05 702.39 1764.05 515.99 1632.25 384.19"/>
  <g>
    <path class="cls-3" d="m1456.38,634.5h22.18v9.87h-22.18v35.96h-11.73v-35.96h-66.94v-6.64l65.86-99.68h12.8v96.45Zm-64.3,0h52.57v-81.3l-5.18,8.99-47.39,72.31Z"/>
    <path class="cls-3" d="m1581.27,621.02c0,20.07-3.68,35.29-11.04,45.69-7.36,10.39-18.21,15.59-32.54,15.59s-24.85-5.1-32.35-15.29c-7.49-10.2-11.34-25.03-11.53-44.51v-25.51c0-20,3.71-35.15,11.14-45.44,7.43-10.29,18.27-15.44,32.54-15.44s24.82,4.97,32.25,14.9c7.43,9.94,11.27,24.58,11.53,43.93v26.09Zm-11.73-25.51c0-16.29-2.66-28.6-7.96-36.94-5.31-8.34-13.34-12.51-24.09-12.51s-18.5,4.07-23.84,12.22c-5.34,8.14-8.08,20.16-8.21,36.06v27.95c0,16.22,2.75,28.63,8.26,37.23,5.5,8.6,13.5,12.9,23.99,12.9s18.32-4.2,23.7-12.61c5.38-8.4,8.09-20.72,8.16-36.94v-27.36Z"/>
    <path class="cls-3" d="m1678.21,634.5h22.18v9.87h-22.18v35.96h-11.73v-35.96h-66.94v-6.64l65.87-99.68h12.8v96.45Zm-64.3,0h52.58v-81.3l-5.18,8.99-47.4,72.31Z"/>
  </g>
  <g>
    <line class="cls-1" x1="1513.55" y1="885.69" x2="1513.55" y2="1436.48"/>
    <line class="cls-1" x1="1564.56" y1="885.69" x2="1564.56" y2="1436.48"/>
  </g>
  <line class="cls-1" x1="317.94" y1="1436.48" x2="2760.17" y2="1436.48"/>
  <g>
    <path class="cls-1" d="m1198.19,821.37h0c0-16.14-13.09-29.23-29.23-29.23-9.5,0-17.94,4.54-23.28,11.56-3.34-18.78-19.73-33.04-39.47-33.04-8.38,0-16.17,2.58-22.6,6.98-5.77-27.53-30.18-48.21-59.42-48.21s-55.8,22.55-60.07,51.9c-8.59-6.68-19.37-10.67-31.09-10.67-28,0-50.71,22.7-50.71,50.71h0"/>
    <line class="cls-1" x1="882.31" y1="821.37" x2="853.71" y2="821.37"/>
    <line class="cls-1" x1="906.68" y1="859.44" x2="950.57" y2="859.44"/>
    <g>
      <line class="cls-1" x1="797.26" y1="842.64" x2="818.58" y2="842.64"/>
      <line class="cls-1" x1="831.85" y1="842.64" x2="910.16" y2="842.64"/>
    </g>
  </g>
  <g>
    <path class="cls-1" d="m1909.84,899.6c4.19-13.7,16.93-23.67,32-23.67,10.83,0,20.42,5.16,26.54,13.14-.32-2.37-.49-4.78-.49-7.24,0-30.09,24.39-54.48,54.48-54.48,24.5,0,45.22,16.17,52.07,38.42,7.78-15.3,23.66-25.79,42.01-25.79,25.62,0,46.44,20.45,47.08,45.91,5.95-5.86,14.12-9.48,23.13-9.48,14.81,0,27.33,9.76,31.51,23.19h43.78"/>
    <line class="cls-1" x1="1997.04" y1="912.7" x2="1871.81" y2="912.7"/>
    <line class="cls-1" x1="2196.82" y1="925.21" x2="2143.98" y2="925.21"/>
    <line class="cls-1" x1="1982.59" y1="935.01" x2="2021.12" y2="935.01"/>
  </g>
  <g>
    <line class="cls-1" x1="2162.92" y1="1253.09" x2="2206.76" y2="1296.93"/>
    <line class="cls-1" x1="2162.92" y1="1296.93" x2="2206.76" y2="1253.09"/>
  </g>
  <g>
    <line class="cls-1" x1="909.92" y1="1253.09" x2="866.08" y2="1296.93"/>
    <line class="cls-1" x1="909.92" y1="1296.93" x2="866.08" y2="1253.09"/>
  </g>
  <circle class="cls-1" cx="1242.56" cy="1299.51" r="24.5"/>
  <circle class="cls-1" cx="1924.5" cy="1116.4" r="24.5"/>
  <line class="cls-1" x1="1737.9" y1="1343.35" x2="1790.21" y2="1343.35"/>
  <line class="cls-1" x1="1014.81" y1="1091.91" x2="1067.12" y2="1091.91"/>
  <g>
    <path class="cls-5" d="m1077.44,1628.91v32.74h-11.03v-83.64h30.85c9.15,0,16.32,2.34,21.51,7.01,5.19,4.67,7.78,10.86,7.78,18.55,0,8.12-2.54,14.37-7.61,18.76-5.07,4.39-12.34,6.58-21.8,6.58h-19.7Zm0-9.02h19.82c5.9,0,10.42-1.39,13.56-4.17,3.14-2.78,4.71-6.8,4.71-12.06,0-4.99-1.57-8.98-4.71-11.97-3.14-2.99-7.45-4.55-12.92-4.66h-20.45v32.86Z"/>
    <path class="cls-5" d="m1178.89,1639.76h-35.04l-7.87,21.89h-11.37l31.94-83.64h9.65l32,83.64h-11.32l-7.98-21.89Zm-31.71-9.02h28.43l-14.25-39.12-14.19,39.12Z"/>
    <path class="cls-5" d="m1270.56,1650.68c-2.83,4.06-6.79,7.09-11.86,9.1-5.07,2.01-10.98,3.02-17.72,3.02s-12.87-1.6-18.15-4.8c-5.28-3.2-9.37-7.74-12.26-13.64-2.89-5.9-4.38-12.73-4.45-20.51v-7.3c0-12.6,2.94-22.36,8.82-29.3,5.88-6.93,14.14-10.4,24.79-10.4,8.73,0,15.76,2.23,21.08,6.69,5.32,4.46,8.58,10.79,9.77,18.98h-11.03c-2.07-11.11-8.66-16.66-19.76-16.66-7.39,0-12.99,2.6-16.8,7.79-3.81,5.19-5.74,12.72-5.77,22.57v6.84c0,9.39,2.14,16.86,6.43,22.39,4.29,5.54,10.09,8.31,17.41,8.31,4.14,0,7.76-.46,10.86-1.37,3.1-.92,5.67-2.46,7.7-4.64v-18.74h-19.36v-9.02h30.33v30.67Z"/>
    <path class="cls-5" d="m1336.22,1622.99h-36.25v29.64h42.11v9.02h-53.14v-83.64h52.56v9.02h-41.53v26.94h36.25v9.02Z"/>
    <path class="cls-5" d="m1449.21,1661.65h-11.09l-42.11-64.45v64.45h-11.09v-83.64h11.09l42.22,64.74v-64.74h10.97v83.64Z"/>
    <path class="cls-5" d="m1533.14,1622.53c0,8.2-1.38,15.35-4.14,21.46-2.76,6.11-6.66,10.77-11.72,13.99-5.05,3.22-10.95,4.83-17.69,4.83s-12.43-1.62-17.52-4.85c-5.09-3.24-9.05-7.85-11.86-13.84-2.81-5.99-4.26-12.93-4.34-20.82v-6.03c0-8.04,1.4-15.15,4.19-21.31,2.8-6.17,6.75-10.89,11.86-14.16,5.11-3.27,10.96-4.91,17.55-4.91s12.61,1.62,17.72,4.85c5.11,3.24,9.05,7.93,11.8,14.07,2.76,6.15,4.14,13.3,4.14,21.46v5.28Zm-10.97-5.4c0-9.92-1.99-17.53-5.97-22.83-3.98-5.3-9.56-7.96-16.72-7.96s-12.46,2.65-16.46,7.96c-4,5.3-6.06,12.67-6.17,22.09v6.15c0,9.61,2.02,17.17,6.06,22.66,4.04,5.5,9.6,8.24,16.69,8.24s12.64-2.59,16.54-7.78c3.91-5.19,5.92-12.63,6.03-22.32v-6.2Z"/>
    <path class="cls-5" d="m1605.92,1587.03h-26.88v74.62h-10.97v-74.62h-26.83v-9.02h64.68v9.02Z"/>
    <path class="cls-5" d="m1691.28,1624.71h-35.1v36.94h-11.03v-83.64h51.81v9.02h-40.79v28.66h35.1v9.02Z"/>
    <path class="cls-5" d="m1774.51,1622.53c0,8.2-1.38,15.35-4.14,21.46-2.76,6.11-6.66,10.77-11.72,13.99-5.05,3.22-10.95,4.83-17.69,4.83s-12.43-1.62-17.52-4.85c-5.09-3.24-9.05-7.85-11.86-13.84-2.81-5.99-4.26-12.93-4.34-20.82v-6.03c0-8.04,1.4-15.15,4.19-21.31,2.8-6.17,6.75-10.89,11.86-14.16,5.11-3.27,10.96-4.91,17.55-4.91s12.61,1.62,17.72,4.85c5.11,3.24,9.05,7.93,11.8,14.07,2.76,6.15,4.14,13.3,4.14,21.46v5.28Zm-10.97-5.4c0-9.92-1.99-17.53-5.97-22.83-3.98-5.3-9.55-7.96-16.72-7.96s-12.46,2.65-16.46,7.96c-4,5.3-6.06,12.67-6.18,22.09v6.15c0,9.61,2.02,17.17,6.06,22.66,4.04,5.5,9.6,8.24,16.69,8.24s12.64-2.59,16.54-7.78,5.92-12.63,6.03-22.32v-6.2Z"/>
    <path class="cls-5" d="m1849.94,1578.01v56.87c-.04,7.89-2.52,14.34-7.44,19.36-4.92,5.02-11.59,7.83-20.02,8.44l-2.93.11c-9.15,0-16.45-2.47-21.89-7.41-5.44-4.94-8.2-11.74-8.27-20.39v-56.98h10.91v56.64c0,6.05,1.67,10.75,5,14.1,3.33,3.35,8.08,5.03,14.25,5.03s11.02-1.67,14.33-5c3.31-3.33,4.97-8.02,4.97-14.07v-56.7h11.09Z"/>
    <path class="cls-5" d="m1931.62,1661.65h-11.09l-42.11-64.45v64.45h-11.09v-83.64h11.09l42.22,64.74v-64.74h10.97v83.64Z"/>
    <path class="cls-5" d="m1951.21,1661.65v-83.64h23.61c7.28,0,13.71,1.61,19.3,4.82,5.59,3.22,9.91,7.79,12.95,13.73,3.04,5.94,4.59,12.75,4.62,20.45v5.34c0,7.89-1.52,14.8-4.57,20.74-3.04,5.94-7.39,10.49-13.04,13.67-5.65,3.18-12.23,4.81-19.73,4.88h-23.15Zm11.03-74.62v65.6h11.6c8.5,0,15.12-2.64,19.85-7.93,4.73-5.29,7.09-12.82,7.09-22.6v-4.89c0-9.5-2.23-16.89-6.69-22.16-4.46-5.27-10.79-7.94-18.99-8.02h-12.87Z"/>
  </g>
</svg>