<?xml version="1.0" encoding="UTF-8"?>
<svg id="Layer_2" data-name="Layer 2" xmlns="http://www.w3.org/2000/svg" width="10" height="5" viewBox="0 0 604.05 1001.76">
  <defs>
    <style>
      .cls-1 {
        fill: none;
        fill-rule: evenodd;
        stroke: #363435;
        stroke-linecap: round;
        stroke-linejoin: round;
        stroke-width: 1px;
      }
    </style>
  </defs>
  <g id="Layer_2-2" data-name="Layer 2">
    <path class="cls-1" d="m487.85,998.76c-18.66-81.26-116.12-502.73-127.34-517.5-12.32-16.22-64.17-70.47-63.09-61.44,1.08,9.07,51.72,55.88,71.65,59.08,20.05,3.22,76.36-2.05,80.24-5.42,3.89-3.37-4.19-12.64-8.53-7.58-4.35,5.06-11.77,14.1,8.88,14.48,20.76.38,90.28-15.71,89.86-18.02-.42-2.31-12.08-4.79-2.11,13.24,10.08,18.23,24.31,46.22,38.88,42.4,14.58-3.83,6.3-50.9-3.47-54.53-9.73-3.62-41.97-3.55-50.31-4.26-8.32-.7,10.38-17,9.17-11.31-1.21,5.7-85.1,17.52-89.94,10.04-4.81-7.45-4.32-13.66-6.48-32.23-2.14-18.39-14.83-39.98-14.83-39.98,0,0,45.22,43.15,44.21,28.02-1.01-15.01-52.7-36.82-52.7-36.82,0,0,18.3,7.22,31.55,4.58,13.27-2.65,23.2-21.14,14.93-32.01-8.21-10.79-16.49-13.48-32.06-12.97-15.51.51-31.53-2.71-31.53-2.71,0,0-6.02,16.54,1.93,27.32,8.01,10.86,25.03,14.77,16.79,7.66-8.19-7.08-44.03-15.29-53.61-18.54-9.55-3.23-36.19-41.69-37.54-52.08-1.35-10.33-10.85-9.77-12.1-19.52-1.24-9.7,2.84-9.72.28-13.78-2.56-4.05-8.62,1.58-8.04-4.51.59-6.08,1.36-10.63,13.38-6.68,12.07,3.96,19.44,13.07,21.22,16.12,1.78,3.06-4.84,20.06-2.99,23.67,1.86,3.62,29.53,33.41,41.24,37.12,11.77,3.73,53.22,11.28,62.85,9.16,9.64-2.12,26.35-9.06,32.26-7.99,5.92,1.08-3.33-15.48-1.65-22.38,1.68-6.88-14.94-24.16-26.99-26.03-12.01-1.85-24.1-.07-33.26,3.96-9.16,4.03-17.03,12.05-17.31,14.84-.28,2.79-.25,6.12,5.01,6.98,5.27.87,15.4-1.77,20.11,1.38,4.72,3.16,9.58,11.63,12.49,9.15,2.91-2.47,3.48-12.16,7.76-9,4.29,3.17,1.63,8.65,6.29,11.12,4.67,2.48,22.67,3.56,22.81-2.66.14-6.2-8.2-23.44-23.87-27.06-15.59-3.6-34.05-3.7-38.28,5.18-4.25,8.91-7.77,10.32-2.45,19.26,5.35,8.99,17.47,24.99,25.71,26.26,8.27,1.27,41.32-9.21,50.07-9.74,8.77-.53,12.76,4.5,8.88,2.88-3.88-1.62-13.3-25.99-11.79-26.88,1.51-.88,23.32-4.28,24.75-4.28,1.43,0-11.43-6.68-13.36-12.3-1.93-5.6-5.78-19.52-30.32-36.62-24.19-16.86-27.29-18.86-29.12-21.55-1.82-2.68-19.83-20.61-27.54-23.18-7.69-2.56-26.9,2.67-19.66,5.58,7.27,2.92,17.19,2.13,18.11,5.13.92,3.01-18.08,4.22-13.53,7.19,4.56,2.98,15.79,1.51,21.56,6.17,5.8,4.68,15.65,14.44,24.77,24.97,9.18,10.61,33.48,29.6,37.2,34.84,3.74,5.26,8.28,17.95,15.01,18.3,6.74.35,24.09-4.28,24.89-2.51.8,1.77,16.34,36.95,17.31,44.95.98,8.02-36.06-15.3-23.75-10.95,12.38,4.37,25.17,16.05,26.42,25.57,1.25,9.56-28.59,56.89-33.88,40.37-5.24-16.36,32.88-29.72,34.29-21.96,1.41,7.79,4.67,36.62,3.88,48.7-.79,12.15,26.69,69.51,15.76,87.4-11,18-12.19,22.76-24.68,18.05-12.43-4.68-77.99-36.4-82.21-44.62-4.21-8.18-8.39-16.32-.49-12.72,7.94,3.61,57.54,42.86,75.19,46.05,17.75,3.2,18.69-8.65,17.73-5.51-.96,3.14-19.09,66.06-26.14,66.65-7.04.59-71.91-20.31-73.23-29.13-1.31-8.78,10.52-51.69,14.94-39.1,4.46,12.68-38.07,75.72-25.46,100.56,12.8,25.2,112.86,91.58,132.84,100.28,20.15,8.78,46.89-5.68,26.67-8.34-20.11-2.63-30.33,2.53-29.21,21.28,1.13,18.92-16.28,32.6-7.3,38.39,9.02,5.81,23.72.79,30.11-8.66,6.38-9.42,9.99-13.21,14.12-20.06,4.12-6.84,15.05-11.58,10.1-21-4.93-9.37-15.98-8.56-27.26-18.16-11.21-9.53-43.93-41.11-65.06-62.06-20.84-20.66-60.83-29.02-49.43-24.12,11.46,4.92,24.72,1.68,29.69-5.55,4.96-7.21,10.4-39.16,11.46-41.95,1.06-2.79,4.96-33.87-4.94-38.87-9.86-4.98-24.88-17.51-36.48-15.43-11.59,2.08-50.62,25.85-58.01,22.51-7.36-3.33-42.95-49.81-43.34-56.3-.38-6.47,76.68-29.79,79.83-25.19,3.16,4.61-29.88,18.51-50.45,24.23-20.53,5.71-52.13,15.01-62.79,22.05-10.68,7.06,20.94,62.48,28.76,81.42,7.91,19.14,17.01,39.35,28.24,33.63,11.22-5.71,25.52-10.92,21.1-13.91-4.42-2.98-27.45,11.25-36.48,14.59-9.03,3.34-21.73,9-30.01,6.25-8.25-2.74-12.8-11.81-14.8-3.78-2.01,8.05,12.82,24.15,24.3,28.29,11.53,4.16,28.44-4.67,37.53-4.32,9.11.35,26.64-.64,28.4-9.65,1.75-8.98-24.6-36.36-25.92-49.69-1.31-13.24-5.54-47.77-11.8-54.2-6.24-6.39-27.02-1.46-9.5,2.11,17.63,3.58,48.83-5.43,62.77-11.36,13.94-5.93-21.12-89.86-20.87-107.71.25-17.7,3.08-27.57.99-31.97-2.08-4.39-6.58-25.04-26.29-14.33-19.73,10.71-36.46,33.49-40.04,17.08-3.55-16.27,16.82-21.54-7.2-33.46-23.75-11.78-63.19-19.26-59.38-45.35,3.76-25.77,12.63-19.65,5.13-37-7.42-17.17-22.31-30.1-13.03-42.15,9.24-12,78.36-74.64,82.03-58.22,3.7,16.58-1.34,67.44,16.29,57.19,17.62-10.24,31.24-37.32,39.72-35.47,8.5,1.86,28.56,40.84,44.77,21.42,16.12-19.31,21.95-49.2,26.73-61.09,4.75-11.83,5.38-23.51,25.65-32.68,17.08-7.73,17.06-21.07,26.86-35.06,10.52-15.01,54.44-32.64,64.38-54.84,4.57-10.21,17.4-41.47-6.46-27.2-19.26,11.52-59.89,37.43-67.09,45.02-29.59,31.24-65.85,74.65-76.87,84.98-21.15,19.83-28.18,1.57-41.59,10.53-13.43,8.98-19.28,23.68-26.81,36.54-7.57,12.92-12.29,84.4-27.03,67.18-14.57-17.01-14.7-37.96-36.36-28.75-21.65,9.2-43.73,60.8-65.71,69.06-21.96,8.25,3.83,35.08,17.02,43.45,13.28,8.43,39.85,45.85,31.88,49.02-7.97,3.18-66.04,57.03-54.91,70.46,11.22,13.55,45.54,17.52,48.25,28.85,2.74,11.4-20.64,18.89-13.67,30.47,7.02,11.67,43.23,61.8,45.74,58.32,2.5-3.48-14.62,63.24-3.55,82.05,11.21,19.02,29.19,31.01,29.19,31.01,0,0-5.58,16.11-5.71,27.49-.13,11.44,16.93,26.35,19.28,32.9,2.36,6.58-54.13,6.32-67.25,25.03-13.2,18.81-2.47,33.85-4.85,40.3-.87,2.37-6.16,26.51-34.01,41.25-9.23,4.89-76.41,26.73-84.16,34.29-32.65,31.88-10.75,52.17-19.85,55.03-17.75,5.56-40.05,10.84-39.38,18.89.67,8.09,4.52,17.76-12.2,18.01-16.66.24-92.21-7.43-92.21-7.43"/>
  </g>
</svg>