<?xml version="1.0" encoding="UTF-8"?>
<svg id="Layer_2" data-name="Layer 2" xmlns="http://www.w3.org/2000/svg" viewBox="0 0 3150 2100">
  <defs>
    <style>
      .cls-1 {
        fill-rule: evenodd;
        stroke: #dcdcdc;
        stroke-linecap: round;
        stroke-linejoin: round;
        stroke-width: 6px;
      }

      .cls-1, .cls-2 {
        fill: #0f0f0f;
      }

      .cls-2 {
        stroke-width: 0px;
      }
    </style>
  </defs>
  <rect class="cls-2" x=".5" y=".5" width="3150" height="2100"/>
  <path class="cls-1" d="m16.97,2031.2c105.86-39.44,106.94-32.68,155.36-74.49,13.52-11.67,26.21-89.57,37.92-103.11,53.67-62.06,88.76-96.72,86.86-130.56-3.82-68.02-26.18-116.85-28.93-133.77-2.75-16.94,57.18-48.41,56.67-96.79-.51-48.53-3.78-69.02,10.7-91.58,14.48-22.56,46.45-71.52,84.6-103.67,38.08-32.1,33.21-87.57,3.18-119.54-30.18-32.14-52.63-36.91-50.9-72.51,1.73-35.67,16.55-33.59,27.59-55.99,11.04-22.41-20.65-87.18,31.89-99.25,52.31-12.02,100.93,1.22,132.61-26.61,31.63-27.79,22.01-69.62,52.16-83.01,30.09-13.36,52.1-8.2,68.63-41.67,16.54-33.49,3.63-75.23-15.87-113.01-19.58-37.95-29.15-55.21,8.15-94.22,37.27-38.96,49.36-54.32,35.85-75.02-13.54-20.75-50.37-28.97-43.26-54.95,7.11-26.02,10.19-55.43,10.19-55.43,0,0,62.36-47.56,61.24-88.7-.53-19.21-1.65-117.41-31.65-174.8-22.66-43.36-61.11-133.01-58.65-107.66,5.25,54.06-11.59,83.38-9.88,89.73,12.92,48.07,8.17,110.21,8.34,113.31,6.75,122.85-15.57,58.29-12.31,136.77.95,22.89-29.05,36.61,1.9,61.75,30.81,25.03,73.28,76.7,95.19,106.76,21.82,29.93,42.65,118.07,61.48,143.34,18.76,25.17,37.55,34.71,37.55,34.71,0,0-56.22,38.12-62.73,38.67-6.53.56-32.8-46.24-35.84-68.35-3.05-22.15-15.67-97.57-26.31-110.27-10.66-12.73-42.5-1.25-46.26-28.13-3.77-26.95,15.53-48.83,21.83-35.66,6.29,13.14,69.85,152.35,75.96,180.92,6.1,28.5,6.57,64.08,14.59,74.49,8.01,10.41,44.92,40.37,53.25,37.42,8.34-2.95,5.2-42.48-7.26-21.47-12.47,21.01.54,213.08-39.1,225.7-39.77,12.66-94.44-32.47-46.75-21.7,47.42,10.71,38,53.13,118.65,71.13,79.89,17.84,126.11-21.36,127.11-30.09,1-8.73,8.61-15.97-63.59-10.95-72.72,5.04-113.12,11.23-91.88-8.3,21.23-19.52,124.79,13.68,130.18-10.65,5.4-24.36-123.65-5.25-93-19.14,30.58-13.86,86.25.29,97.17-31.15,10.92-31.48,41.09-80.03,43.95-91.18,2.86-11.17-49.42-50.2-36.98-20.65,12.4,29.45,74.66,64.98,74.66,64.98l51.61-46.03s43.2,58.67,50.76,85.94c7.54,27.2-9.27,146.51-5.63,175.93,3.63,29.35,5.71,46.09-10.03,71.08-15.73,24.99-59.46,44.62-59.51,27.68-.05-16.96,15.76-25.05,19.35-46.66,3.58-21.64-35.89-.4-29.42-15.99,6.46-15.61,37.69-1.89,41.28-23.55,3.6-21.68-.12-68.26-10.38-116.51-10.31-48.46-2.43-36.31-11.92-61.24-9.5-25.01-51.76-73.06-46.52-82.24,5.23-9.18,38.7,2.93,39.68-23.23.98-26.2-31.79-49.43-48.78-65.42-17.05-16.04-24.8-26.34-74.79-13.19-50.21,13.21-73.81,15.28-70.84-11.48,2.98-26.81,58.2-35.93,39.06-16.63-19.15,19.31-17.6-18.39-16.61-27.33,1-8.94-33.53-14.92-35.08-34.79-1.54-19.9,37.39-72.05,58.64-75.96,21.21-3.91,39.76,22.39,38.1,34.74-1.66,12.33-6.61,32.67-6.61,32.67,0,0,11.56-10.92,14.97-1.23,3.4,9.67,6.94,20.42-5.17,26.96-12.12,6.54-21.75,7.35-21.32,10.63.43,3.28,3.98,14.02,23.35,13.47,19.33-.54,46.05-1.72,54.7-26.67,8.66-24.96,1.99-60.85-9.81-77.61-11.83-16.8-32.69-19.58-47.1-30.68-14.43-11.12-6.92-11.71-14.43-11.12-7.52.59,1.42,11.03-4.88,12.64-6.31,1.6-23.08-10.46-11.96-.18,11.09,10.27,43.93,29.88,53.79,47.94,9.84,18.01,23.32,22.43,15.72,47.35-7.59,24.89-38.39,45.14-42.6,54.32-4.21,9.18,10.63,15.6,0,41.81-10.62,26.2-114.2,66.28-102.08,47.02,12.11-19.26.52-8.31-15.14,57.46-15.61,65.59-21.97,126.82-36,131.47-14.06,4.66-166.48-59.63-182.88-46.47-16.42,13.17-3.45,114.26,10.8,132.54,14.22,18.23,80.03,52.24,142.37,65.19,61.89,12.85,179.64-70.53,166.88-82.13-12.79-11.63-98.03,74.86-110.44,55.12-12.44-19.78-31.41-110.7-51.3-89.1-19.91,21.61,15.15,133.4-4.16,99.78-19.39-33.76,4.38-98.17-32.91-119.01-37.48-20.95-144.05-70.17-169.48-72.74-25.51-2.58-49.92-8.61-74.32,53.69-24.37,62.2-80.45,170.56-85.85,179.39-5.41,8.82,52.76,58.57,53.12,38.83.36-19.76-38.49-20.58-78.27-26.27-39.94-5.72-104.02-22.27-103.62-9.01.4,13.25,25.49,42.1,54.6,53.87,29.01,11.72,83.88,38.63,101.1,30.18,17.2-8.44,4.17-49.71,38.05-81.27,33.83-31.52,63.36-69.14,80.2-102.17,16.85-33.04,23.8-88.3,4.77-69.88-19.05,18.43,9.74,43.68,33.23,56.15,23.41,12.44,86.98,17.46,129.76,40.84,42.52,23.25,65.68,25.7,65.68,25.7,0,0-31.59,89.17-30.03,100.31,1.55,11.12,114.2,41.96,127.08,42.11,12.85.16,31.18-78.68,18.2-91.72-13-13.07-88.73-47-72.89-26.03,15.79,20.91,101.89,14.87,105.8,8.04,3.9-6.84,51.77-81.01,33.52-98.46-18.31-17.51-22.35,86.03,10.41,92.15,32.63,6.1,57.93-31.79,60.41-49.67,2.48-17.89-39.06-81.22-52.85-76.6-13.8,4.63-9.41,112.04,15.86,171.69,25.1,59.25,50.03,118.11,12.87,74.91-37.42-43.5-30.24-233.52-52.77-234.46-22.59-.95-29.6,43.41-46.1,88.66-16.48,45.2-65.17,161.17-64.61,177.09.56,15.89,23.47,30.79,66.73,138.12,42.75,106.07,53.04,135.93,53.04,135.93,0,0-94.31,29.23-76.92,5.14,17.38-24.1,64.33-28.47,86.22-6.33,21.8,22.06,32.87,34.58,33.33,50.01.46,15.4-6.19,36.36-27.11,56.12-20.94,19.77-56.07,86.19-89.77,70.73-33.85-15.53,4.34-37.69,4.11-109.04-.23-71.71,11.64-54.48-1.07-77.86-12.74-23.45-81.9-118.95-113.8-162.79-32.1-44.12-46.63-66.46-26.03-128.2,20.63-61.88,27.22-96.5,29.54-103.21,2.33-6.72,9.19-170.02,9.19-170.02,0,0-146.48-448.56-162.13-440.57-15.66,8.01,169.75,472.46,178.15,486.27,162.95,268.2-242.95,873.68-396.68,1016.46"/>
</svg>