<?xml version="1.0" encoding="UTF-8"?>
<svg id="Layer_2" data-name="Layer 2" xmlns="http://www.w3.org/2000/svg" width="10" height="6" viewBox="0 0 3150.5 2100.5">
  <defs>
    <style>
      .cls-1 {
        fill: #e9ecee;
      }

      .cls-1, .cls-2 {
        stroke-width: 0px;
      }

      .cls-2 {
        fill: #fff;
      }

      .cls-3 {
        fill: none;
        stroke: #363435;
        stroke-linecap: round;
        stroke-linejoin: round;
        stroke-width: 6px;
      }
    </style>
  </defs>
  <g id="Layer_2-2" data-name="Layer 2">
    <g>
      <g>
        <path class="cls-1" d="m861.57,820.49c-.16.2-1.69,3.22-5.03,8.53-1.38,2.19-1.26,3.61.05,4.37-3.7,10.46-9.14,27.69-15.19,53.09-15.61,65.58-21.97,126.81-36,131.46-.76.25-1.93.3-3.46.17-1.6-4.85-3.75-11.41-6.39-19.38,18.67-40.8,16.16-147.6,21.06-192.09,4.99,2.75,9.07,4.19,11.23,3.43,8.33-2.95,5.2-42.48-7.27-21.47-1.75,2.95-3,9.29-3.96,18.04-14.29-7.83-36.08-26.27-42.02-33.99-2.17-2.81-3.78-7.44-5.1-13.26.42.21.8.3,1.12.27,6.52-.56,62.74-38.68,62.74-38.68,0,0-18.8-9.53-37.56-34.71-18.83-25.27-39.66-113.42-61.48-143.34-6.35-8.7-14.42-19.23-23.44-30.39-12.74-15.77-27.36-32.83-41.65-47.85.15-1.13.38-2.29.71-3.49,7.11-26.01,10.19-55.42,10.19-55.42,0,0,62.36-47.56,61.24-88.71-.53-19.2-1.65-117.41-31.65-174.79-22.66-43.36-61.11-133.01-58.65-107.67,5.25,54.07-11.59,83.38-9.88,89.74,12.92,48.07,8.17,110.2,8.34,113.3,6.75,122.86-15.56,58.3-12.31,136.77.96,22.89-29.04,36.61,1.91,61.75,9.27,7.53,19.6,17.48,30.1,28.52-2.86,21.89,27.11,30.61,41.44,48.02.91,1.11,1.76,2.26,2.53,3.44,9.43,14.45,6.39,26.29-8.98,45.37-10.13-22.61-18.15-40.03-20.18-44.28-6.3-13.16-25.6,8.72-21.83,35.66,2.55,18.25,18.04,18.82,31.06,21.29-4.66,5.14-9.97,10.76-15.92,16.98-8.19,8.57-14.13,16.08-18.19,23-7.94-18.03-13.69-28.22-16.17-26.95-2.88,1.47,1.03,18.36,9.39,45.03-2.44,16.26,5.52,31.26,16.81,53.14,1.19,2.3,2.35,4.61,3.48,6.93,5.33,15.04,11.15,31.14,17.31,47.9,4.34,20.5,3.82,40.49-4.92,58.18-16.52,33.47-38.54,28.31-68.62,41.67-30.16,13.38-20.54,55.22-52.17,83.01-31.67,27.82-80.3,14.59-132.6,26.61-52.55,12.07-20.86,76.84-31.9,99.25-11.03,22.4-25.86,20.32-27.58,55.99-1.72,35.6,20.72,40.37,50.9,72.51.01.01.02.02.02.03-4.65,8.93-7.89,14.92-9,16.73-1.71,2.78,2.91,9.63,10.05,17.1-10.91-1.51-23-2.8-35.19-4.54-39.94-5.72-104.02-22.27-103.62-9.01.39,13.25,25.49,42.1,54.6,53.87,25.25,10.2,70.09,31.91,92.64,31.8,3.37-.02,6.23-.52,8.46-1.61,11.05-5.42,9.63-24.37,16.17-45.6,5.85,2.39,9.92,1.99,10.01-3.18.08-4.2-1.62-7.55-4.72-10.25,3.74-7.58,8.98-15.16,16.59-22.25,33.83-31.52,63.36-69.14,80.2-102.16,4.94-9.69,9.03-21.3,11.86-32.39,7.54,7.34,17.22,13.92,26.14,18.66,7.2,3.83,18.21,6.95,31.24,10.13,1.54,3.99,3.15,7.16,4.78,9.24,14.22,18.23,80.03,52.24,142.37,65.19,3.3.68,6.77,1.1,10.37,1.26-9.18,26.87-24.45,73.2-23.35,81.03.36,2.55,6.58,6.15,16.11,10.17-3.45,11.59-7.55,24.71-12.43,39.36-20.6,61.75-6.07,84.09,26.03,128.2,5.99,8.23,13.29,18.29,21.29,29.34,34.59,47.83,82.16,114.4,92.51,133.45,1.57,2.9,2.77,5.17,3.66,7.06-3.65,2.66-6.83,5.77-9.38,9.3-5.42,7.51,0,9.84,10.03,9.49-1.44,8.47-3.34,22.93-3.24,52.01.22,71.34-37.96,93.51-4.12,109.03,33.7,15.46,68.83-50.96,89.77-70.73,20.92-19.76,27.56-40.72,27.1-56.12-.45-15.42-11.52-27.95-33.32-50.01-3.71-3.75-8.13-6.74-13.01-9-5.91-15.96-19.96-52.86-49.33-125.74-43.27-107.33-66.18-122.23-66.74-138.12-.18-5.02,4.54-19.99,11.62-39.55,10.14,2.43,17.72,3.93,20.53,3.96,12.86.16,31.18-78.68,18.2-91.72-.93-.94-2.19-1.99-3.72-3.11,1.17-2.98,2.33-5.92,3.45-8.79,17.55-.86,31.65-3.42,33.18-6.09,1.76-3.09,12.52-19.96,22.09-39.13,3.43,16.63,10.38,30.68,21.84,32.82,1.96.37,3.89.58,5.8.64,5.57,49.14,13.36,99.76,30.49,119.68,37.16,43.21,12.22-15.65-12.88-74.9-5.58-13.17-10.14-28.66-13.71-44.86,27.83-1.95,48.48-34.17,50.71-50.23,2.48-17.9-39.06-81.22-52.85-76.6-7.82,2.62-9.8,38.22-5.46,79.44l-1.37.15c-1.58-14.39-3.17-27.51-5.01-38.27-3.03-17.64-6.74-28.96-12.2-29.19-11.01-.46-18.31,9.83-24.83,25.75-.03-.86-.35-1.56-.95-2.11-9.99-9.08-64.14,41.65-93.3,54.93-6.18-24.63-15.43-47.6-28.13-68.51-1.08-1.76-5.05-10.9-11.12-25.51,10.84,6.09,24.69,11.57,43.36,15.74,79.89,17.84,126.11-21.36,127.11-30.09,1.01-8.73,8.61-15.97-63.58-10.95-72.72,5.04-113.13,11.23-91.89-8.3,21.23-19.52,124.79,13.68,130.18-10.66,5.4-24.36-123.65-5.24-93-19.13,30.58-13.86,86.25.29,97.17-31.15,8.25-23.76,27.46-57.25,37.62-77.03,20.87,16.98,44.01,30.18,44.01,30.18l3.06-2.73c11.81,17.69,27.67,39.22,33.05,53.37,9.49,24.93,1.61,12.78,11.92,61.24,10.26,48.25,13.98,94.84,10.38,116.51-3.59,21.66-34.82,7.95-41.28,23.56-6.46,15.59,33.01-5.65,29.43,15.99-3.59,21.62-19.4,29.7-19.35,46.67.05,16.94,43.78-2.69,59.51-27.69,15.73-24.99,13.66-41.73,10.02-71.08-3.64-29.41,13.17-148.73,5.63-175.93-7.56-27.26-50.76-85.94-50.76-85.94l-48.55,43.3c-9.07-13.57-15.75-24.89-13.47-28.88,5.24-9.18,38.7,2.93,39.68-23.22.98-26.2-31.79-49.43-48.78-65.42-15.11-14.22-22.92-23.93-59.32-16.79,2.33-16.18-7-21.85-3.55-29.36,1.71-3.74,7.85-9.33,15.04-16.32,17.98-1,38.79-4.88,46.23-26.34,8.65-24.96,1.98-60.85-9.81-77.61-11.83-16.8-32.7-19.59-47.1-30.68-14.43-11.12-6.92-11.71-14.43-11.12-7.52.59,1.42,11.03-4.88,12.64-6.31,1.6-23.09-10.46-11.97-.18,11.1,10.27,43.93,29.88,53.79,47.94,9.84,18.01,23.33,22.43,15.73,47.35-4.5,14.74-17.13,27.85-27.56,38-2.92.17-5.77.25-8.47.33-19.37.54-22.92-10.2-23.35-13.48-.42-3.27,9.2-4.09,21.32-10.62,12.11-6.54,8.58-17.3,5.17-26.97-3.4-9.68-14.96,1.24-14.96,1.24,0,0,4.94-20.34,6.6-32.67,1.66-12.35-16.89-38.65-38.09-34.74-21.26,3.91-60.19,56.07-58.65,75.96,1.55,19.88,36.08,25.85,35.08,34.79-.42,3.76-.94,12.61.03,20.16-10.45,4.16-21.21,12.37-22.48,23.8-2.97,26.76,20.63,24.69,70.84,11.48,5.68-1.49,10.81-2.68,15.47-3.6-.52,3.59-1.61,7.69-3.54,12.45-9.41,23.22-91.87,57.35-102.03,51.39,3.1-8.76,4.98-12.79,4.98-12.9ZM3150.25.25v2100H.25V.25h3150Z"/>
        <path class="cls-1" d="m1143.36,946.5c7.54,27.2-9.27,146.52-5.63,175.93,3.64,29.35,5.71,46.09-10.02,71.08-15.73,25-59.46,44.63-59.51,27.69-.05-16.97,15.76-25.05,19.35-46.67,3.58-21.64-35.89-.4-29.43-15.99,6.46-15.61,37.69-1.9,41.28-23.56,3.6-21.67-.12-68.26-10.38-116.51-10.31-48.46-2.43-36.31-11.92-61.24-5.38-14.15-21.24-35.68-33.05-53.37l48.55-43.3s43.2,58.68,50.76,85.94Z"/>
        <path class="cls-1" d="m1021.48,786.34c16.99,15.99,49.76,39.22,48.78,65.42-.98,26.15-34.44,14.04-39.68,23.22-2.28,3.99,4.4,15.31,13.47,28.88l-3.06,2.73s-23.14-13.2-44.01-30.18c3.29-6.43,5.63-11.41,6.33-14.15,2.86-11.17-49.42-50.2-36.99-20.65,4.84,11.5,17.29,23.93,30.66,34.8-10.16,19.78-29.37,53.27-37.62,77.03-10.92,31.44-66.59,17.29-97.17,31.15-30.65,13.89,98.4-5.23,93,19.13-5.39,24.34-108.95-8.86-130.18,10.66-21.24,19.53,19.17,13.34,91.89,8.3,72.19-5.02,64.59,2.22,63.58,10.95-1,8.73-47.22,47.93-127.11,30.09-18.67-4.17-32.52-9.65-43.36-15.74-1.6-3.85-3.35-8.09-5.22-12.67.2-4.79.32-7.53.32-7.53,0,0-1.12-3.42-3.17-9.67,1.53.13,2.7.08,3.46-.17,14.03-4.65,20.39-65.88,36-131.46,6.05-25.4,11.49-42.63,15.19-53.09,10.16,5.96,92.62-28.17,102.03-51.39,1.93-4.76,3.02-8.86,3.54-12.45,36.4-7.14,44.21,2.57,59.32,16.79Z"/>
        <path class="cls-1" d="m992.38,1051.3c13.79-4.62,55.33,58.7,52.85,76.6-2.23,16.06-22.88,48.28-50.71,50.23-3.44-15.63-5.97-31.9-7.6-47.39-4.34-41.22-2.36-76.82,5.46-79.44Z"/>
        <path class="cls-1" d="m1008.23,1222.99c25.1,59.25,50.04,118.11,12.88,74.9-17.13-19.92-24.92-70.54-30.49-119.68,1.32.04,2.62,0,3.9-.08,3.57,16.2,8.13,31.69,13.71,44.86Z"/>
        <path class="cls-1" d="m1010.07,619.92c11.79,16.76,18.46,52.65,9.81,77.61-7.44,21.46-28.25,25.34-46.23,26.34,10.43-10.15,23.06-23.26,27.56-38,7.6-24.92-5.89-29.34-15.73-47.35-9.86-18.06-42.69-37.67-53.79-47.94-11.12-10.28,5.66,1.78,11.97.18,6.3-1.61-2.64-12.05,4.88-12.64,7.51-.59,0,0,14.43,11.12,14.4,11.09,35.27,13.88,47.1,30.68Z"/>
        <path class="cls-1" d="m1020.03,1652.05c.46,15.4-6.18,36.36-27.1,56.12-20.94,19.77-56.07,86.19-89.77,70.73-33.84-15.52,4.34-37.69,4.12-109.03-.1-29.08,1.8-43.54,3.24-52.01,22.17-.77,66.88-14.63,66.88-14.63,0,0-1.01-2.92-3.7-10.19,4.88,2.26,9.3,5.25,13.01,9,21.8,22.06,32.87,34.59,33.32,50.01Z"/>
        <path class="cls-1" d="m966.32,841.61c-12.43-29.55,39.85,9.48,36.99,20.65-.7,2.74-3.04,7.72-6.33,14.15-13.37-10.87-25.82-23.3-30.66-34.8Z"/>
        <path class="cls-2" d="m994.52,1178.13c-1.28.09-2.58.12-3.9.08-1.84-16.33-3.45-32.5-5.07-47.32l1.37-.15c1.63,15.49,4.16,31.76,7.6,47.39Z"/>
        <path class="cls-1" d="m985.55,1130.89c1.62,14.82,3.23,30.99,5.07,47.32-1.91-.06-3.84-.27-5.8-.64-11.46-2.14-18.41-16.19-21.84-32.82,9.27-18.57,17.43-39.3,15.19-51.73l2.37-.4c1.84,10.76,3.43,23.88,5.01,38.27Z"/>
        <path class="cls-1" d="m980.54,1092.62l-2.37.4c-.56-3.1-1.77-5.69-3.76-7.6-11.91-11.39-17.78,28.42-11.43,59.33-9.57,19.17-20.33,36.04-22.09,39.13-1.53,2.67-15.63,5.23-33.18,6.09,5.82-14.81,10.94-28.03,14.53-37.88,7.53-20.65,13.08-41.11,19.05-57.16,1.52-2.3,2.29-4.25,2.22-5.75,6.52-15.92,13.82-26.21,24.83-25.75,5.46.23,9.17,11.55,12.2,29.19Z"/>
        <path class="cls-2" d="m978.17,1093.02c2.24,12.43-5.92,33.16-15.19,51.73-6.35-30.91-.48-70.72,11.43-59.33,1.99,1.91,3.2,4.5,3.76,7.6Z"/>
        <path class="cls-1" d="m973.7,1593.04c2.69,7.27,3.7,10.19,3.7,10.19,0,0-44.71,13.86-66.88,14.63,1.67-9.82,2.72-11.59-.65-18.79,17.01-12.43,44.12-15.17,63.83-6.03Z"/>
        <path class="cls-1" d="m968.32,673.13c3.41,9.67,6.94,20.43-5.17,26.97-12.12,6.53-21.74,7.35-21.32,10.62.43,3.28,3.98,14.02,23.35,13.48,2.7-.08,5.55-.16,8.47-.33-7.19,6.99-13.33,12.58-15.04,16.32-3.45,7.51,5.88,13.18,3.55,29.36-4.66.92-9.79,2.11-15.47,3.6-50.21,13.21-73.81,15.28-70.84-11.48,1.27-11.43,12.03-19.64,22.48-23.8,1.33,10.41,5.48,18.37,16.58,7.17,10.97-11.07-2.52-12.79-16.58-7.17-.97-7.55-.45-16.4-.03-20.16,1-8.94-33.53-14.91-35.08-34.79-1.54-19.89,37.39-72.05,58.65-75.96,21.2-3.91,39.75,22.39,38.09,34.74-1.66,12.33-6.6,32.67-6.6,32.67,0,0,11.56-10.92,14.96-1.24Z"/>
        <path class="cls-1" d="m924.37,1467.3c29.37,72.88,43.42,109.78,49.33,125.74-19.71-9.14-46.82-6.4-63.83,6.03-.89-1.89-2.09-4.16-3.66-7.06-10.35-19.05-57.92-85.62-92.51-133.45,20.52-59.32,35.27-117.62,41.71-172.43,4.95,1.3,9.62,2.48,13.84,3.5-7.08,19.56-11.8,34.53-11.62,39.55.56,15.89,23.47,30.79,66.74,138.12Z"/>
        <path class="cls-2" d="m943.51,1089.18c.07,1.5-.7,3.45-2.22,5.75.73-1.99,1.47-3.91,2.22-5.75Z"/>
        <path class="cls-2" d="m942.56,1087.07c.6.55.92,1.25.95,2.11-.75,1.84-1.49,3.76-2.22,5.75-9.52,14.39-48.14,42.44-89.1,60.03-.88-4.37-1.86-8.69-2.93-12.96,29.16-13.28,83.31-64.01,93.3-54.93Z"/>
        <path class="cls-1" d="m941.29,1094.93c-5.97,16.05-11.52,36.51-19.05,57.16-3.59,9.85-8.71,23.07-14.53,37.88-5.49.27-11.31.38-17.18.27-10.65-5.87-23.93-12.05-35.06-16.18-.91-6.47-2-12.83-3.28-19.1,40.96-17.59,79.58-45.64,89.1-60.03Z"/>
        <path class="cls-2" d="m898.33,737.87c14.06-5.62,27.55-3.9,16.58,7.17-11.1,11.2-15.25,3.24-16.58-7.17Z"/>
        <path class="cls-2" d="m909.87,1599.07c3.37,7.2,2.32,8.97.65,18.79-10.03.35-15.45-1.98-10.03-9.49,2.55-3.53,5.73-6.64,9.38-9.3Z"/>
        <path class="cls-1" d="m907.98,1201.87c12.98,13.04-5.34,91.88-18.2,91.72-2.81-.03-10.39-1.53-20.53-3.96,9.49-26.33,23.24-60.96,35.01-90.87,1.53,1.12,2.79,2.17,3.72,3.11Z"/>
        <path class="cls-2" d="m907.71,1189.97c-1.12,2.87-2.28,5.81-3.45,8.79-3.44-2.54-8.23-5.49-13.73-8.52,5.87.11,11.69,0,17.18-.27Z"/>
        <path class="cls-1" d="m890.53,1190.24c5.5,3.03,10.29,5.98,13.73,8.52-11.77,29.91-25.52,64.54-35.01,90.87-4.22-1.02-8.89-2.2-13.84-3.5,4.09-34.75,4.84-68.09,1.6-99.41,9.95,2.26,21.85,3.31,33.52,3.52Z"/>
        <path class="cls-2" d="m890.53,1190.24c-11.67-.21-23.57-1.26-33.52-3.52-.43-4.26-.95-8.48-1.54-12.66,11.13,4.13,24.41,10.31,35.06,16.18Z"/>
        <path class="cls-2" d="m856.54,829.02c3.34-5.31,4.87-8.33,5.03-8.53,0,.11-1.88,4.14-4.98,12.9-1.31-.76-1.43-2.18-.05-4.37Z"/>
        <path class="cls-1" d="m857.01,1186.72c3.24,31.32,2.49,64.66-1.6,99.41-25.08-6.59-57.49-16.4-76.6-24.47,11.08-37.34,15.34-58.72,17.11-63.85.56-1.62,1.39-12.34,2.32-27.68,16.86-1.53,35.64-7.3,53.95-15.17,1.28,6.27,2.37,12.63,3.28,19.1-15.99-5.95-27.53-7.68-20.37,1.79,3.85,5.1,11.9,8.6,21.91,10.87Z"/>
        <path class="cls-2" d="m855.47,1174.06c.59,4.18,1.11,8.4,1.54,12.66-10.01-2.27-18.06-5.77-21.91-10.87-7.16-9.47,4.38-7.74,20.37-1.79Z"/>
        <path class="cls-1" d="m849.26,1142c1.07,4.27,2.05,8.59,2.93,12.96-18.31,7.87-37.09,13.64-53.95,15.17,1.67-27.7,3.69-70.46,5.1-101.89,11.17,23.31,21.19,61.88,28.79,73.95,2.72,4.33,8.94,3.55,17.13-.19Z"/>
        <path class="cls-2" d="m849.26,1142c-8.19,3.74-14.41,4.52-17.13.19-7.6-12.07-17.62-50.64-28.79-73.95.4-9.02.76-17.11,1.04-23.64,1.79,1.15,3.66,2.27,5.63,3.38,6.07,14.61,10.04,23.75,11.12,25.51,12.7,20.91,21.95,43.88,28.13,68.51Z"/>
        <path class="cls-2" d="m820.57,788.6c12.47-21.01,15.6,18.52,7.27,21.47-2.16.76-6.24-.68-11.23-3.43.96-8.75,2.21-15.09,3.96-18.04Z"/>
        <path class="cls-1" d="m778.81,1261.66c19.11,8.07,51.52,17.88,76.6,24.47-6.44,54.81-21.19,113.11-41.71,172.43-8-11.05-15.3-21.11-21.29-29.34-32.1-44.11-46.63-66.45-26.03-128.2,4.88-14.65,8.98-27.77,12.43-39.36Z"/>
        <path class="cls-1" d="m795.79,686.27c18.76,25.18,37.56,34.71,37.56,34.71,0,0-56.22,38.12-62.74,38.68-.32.03-.7-.06-1.12-.27-3.59-15.81-5.04-40.41-9.49-61.23-4.14-19.33-34.59-89.33-55.79-136.64,15.37-19.08,18.41-30.92,8.98-45.37-.77-1.18-1.62-2.33-2.53-3.44l.21-.17c9.02,11.16,17.09,21.69,23.44,30.39,21.82,29.92,42.65,118.07,61.48,143.34Z"/>
        <path class="cls-1" d="m816.61,806.64c-4.9,44.49-2.39,151.29-21.06,192.09-26.63-80.63-101.99-306.37-136.4-384.56,4.06-6.92,10-14.43,18.19-23,5.95-6.22,11.26-11.84,15.92-16.98,6.16,1.17,11.77,2.76,15.2,6.85,10.64,12.7,23.26,88.12,26.31,110.27,2.9,21,26.76,64.31,34.72,68.08,1.32,5.82,2.93,10.45,5.1,13.26,5.94,7.72,27.73,26.16,42.02,33.99Z"/>
        <path class="cls-2" d="m804.79,1035.31c1.87,4.58,3.62,8.82,5.22,12.67-1.97-1.11-3.84-2.23-5.63-3.38.16-3.61.3-6.74.41-9.29Z"/>
        <path class="cls-2" d="m805.11,1027.78s-.12,2.74-.32,7.53c-2.26-5.48-4.69-11.45-7.3-17.86,1.71.33,3.2.56,4.45.66,2.05,6.25,3.17,9.67,3.17,9.67Z"/>
        <path class="cls-1" d="m804.79,1035.31c-.11,2.55-.25,5.68-.41,9.29-14.3-9.17-22.92-19.37-31.5-28.45,2.91-.35,5.78-.96,8.59-1.85.49-.16.98-.34,1.45-.56,5.78,1.68,10.73,2.96,14.57,3.71,2.61,6.41,5.04,12.38,7.3,17.86Z"/>
        <path class="cls-1" d="m804.38,1044.6c-.28,6.53-.64,14.62-1.04,23.64-7.15-14.9-14.76-23.57-22.51-15.16-13.68,14.85-1.41,72.26,1.35,95.84-2.45-.67-5.33-1.52-8.62-2.6-13.59-34.95,5.2-92.9-29.8-112.46-25.35-14.17-82.32-41.28-124.4-58.13.9-1.85,1.95-3.29,3.15-4.26,8.35-6.69,51.89,6.65,94.52,20.77-6.67,5.67,26.29,27.55,55.85,23.91,8.58,9.08,17.2,19.28,31.5,28.45Z"/>
        <path class="cls-1" d="m803.34,1068.24c-1.41,31.43-3.43,74.19-5.1,101.89-4.2.39-8.27.51-12.19.33,3.89-11.39,6.69-19.28,6.69-19.28,0,0-3.6-.38-10.56-2.26-2.76-23.58-15.03-80.99-1.35-95.84,7.75-8.41,15.36.26,22.51,15.16Z"/>
        <path class="cls-2" d="m801.94,1018.11c-1.25-.1-2.74-.33-4.45-.66-1.65-4.07-3.37-8.32-5.14-12.73,1.13-1.79,2.2-3.79,3.2-5.99,2.64,7.97,4.79,14.53,6.39,19.38Z"/>
        <path class="cls-1" d="m798.24,1170.13c-.93,15.34-1.76,26.06-2.32,27.68-1.77,5.13-6.03,26.51-17.11,63.85-9.53-4.02-15.75-7.62-16.11-10.17-1.1-7.83,14.17-54.16,23.35-81.03,3.92.18,7.99.06,12.19-.33Z"/>
        <path class="cls-2" d="m792.35,1004.72c1.77,4.41,3.49,8.66,5.14,12.73-3.84-.75-8.79-2.03-14.57-3.71,3.57-1.58,6.69-4.68,9.43-9.02Z"/>
        <path class="cls-1" d="m795.55,998.73c-1,2.2-2.07,4.2-3.2,5.99-27.66-68.53-69.76-175.83-102.38-264.5-3.36-15.94-9.66-32.19-17.31-47.9-8.11-22.93-15.07-43.41-20.29-60.07.85-5.75,3.01-11.65,6.78-18.08,34.41,78.19,109.77,303.93,136.4,384.56Z"/>
        <path class="cls-1" d="m689.97,740.22c32.62,88.67,74.72,195.97,102.38,264.5-2.74,4.34-5.86,7.44-9.43,9.02-5.41-1.58-11.55-3.5-18.2-5.65-7.66-6.86-16.54-12.46-30-15.5-10.19-2.3-15.7-2.05-17.69-.35-42.63-14.12-86.17-27.46-94.52-20.77-1.2.97-2.25,2.41-3.15,4.26-20.13-8.06-36.85-13.78-45.08-14.61-25.51-2.58-49.92-8.61-74.32,53.69-19.37,49.45-58.79,128.06-76.86,162.66,0,0-.01-.02-.02-.03-30.18-32.14-52.62-36.91-50.9-72.51,1.72-35.67,16.55-33.59,27.58-55.99,11.04-22.41-20.65-87.18,31.9-99.25,52.3-12.02,100.93,1.21,132.6-26.61,31.63-27.79,22.01-69.63,52.17-83.01,30.08-13.36,52.1-8.2,68.62-41.67,8.74-17.69,9.26-37.68,4.92-58.18Z"/>
        <path class="cls-1" d="m792.74,1151.18s-2.8,7.89-6.69,19.28c-3.6-.16-7.07-.58-10.37-1.26-62.34-12.95-128.15-46.96-142.37-65.19-1.63-2.08-3.24-5.25-4.78-9.24,29.32,7.14,68.91,14.52,98.53,30.71,19.84,10.86,35.47,17.18,46.5,20.84.89,2.28,1.92,4.47,3.11,6.54,6.04,10.52,6.76,6.8,5.51-3.94,6.96,1.88,10.56,2.26,10.56,2.26Z"/>
        <path class="cls-2" d="m782.92,1013.74c-.47.22-.96.4-1.45.56-2.81.89-5.68,1.5-8.59,1.85-2.67-2.81-5.33-5.52-8.16-8.06,6.65,2.15,12.79,4.07,18.2,5.65Z"/>
        <path class="cls-2" d="m782.18,1148.92c1.25,10.74.53,14.46-5.51,3.94-1.19-2.07-2.22-4.26-3.11-6.54,3.29,1.08,6.17,1.93,8.62,2.6Z"/>
        <path class="cls-2" d="m772.88,1016.15c-29.56,3.64-62.52-18.24-55.85-23.91,16.77,5.56,33.4,11.23,47.69,15.85,2.83,2.54,5.49,5.25,8.16,8.06Z"/>
        <path class="cls-1" d="m743.76,1033.86c35,19.56,16.21,77.51,29.8,112.46-11.03-3.66-26.66-9.98-46.5-20.84-29.62-16.19-69.21-23.57-98.53-30.71-11.05-28.39-19.13-98.59-9.17-119.04,42.08,16.85,99.05,43.96,124.4,58.13Z"/>
        <path class="cls-1" d="m760,698.16c4.45,20.82,5.9,45.42,9.49,61.23-7.96-3.77-31.82-47.08-34.72-68.08-3.05-22.15-15.67-97.57-26.31-110.27-3.43-4.09-9.04-5.68-15.2-6.85,4.17-4.58,7.82-8.77,10.95-12.67,21.2,47.31,51.65,117.31,55.79,136.64Z"/>
        <path class="cls-1" d="m741.36,317.07c1.12,41.15-61.24,88.71-61.24,88.71,0,0-3.08,29.41-10.19,55.42-.33,1.2-.56,2.36-.71,3.49-10.5-11.04-20.83-20.99-30.1-28.52-30.95-25.14-.95-38.86-1.91-61.75-3.25-78.47,19.06-13.91,12.31-136.77-.17-3.1,4.58-65.23-8.34-113.3-1.71-6.36,15.13-35.67,9.88-89.74-2.46-25.34,35.99,64.31,58.65,107.67,30,57.38,31.12,155.59,31.65,174.79Z"/>
        <path class="cls-1" d="m734.72,992.59c13.46,3.04,22.34,8.64,30,15.5-14.29-4.62-30.92-10.29-47.69-15.85,1.99-1.7,7.5-1.95,17.69.35Z"/>
        <path class="cls-2" d="m710.87,512.54l-.21.17c-14.33-17.41-44.3-26.13-41.44-48.02,14.29,15.02,28.91,32.08,41.65,47.85Z"/>
        <path class="cls-1" d="m704.21,561.52c-3.13,3.9-6.78,8.09-10.95,12.67-13.02-2.47-28.51-3.04-31.06-21.29-3.77-26.94,15.53-48.82,21.83-35.66,2.03,4.25,10.05,21.67,20.18,44.28Z"/>
        <path class="cls-2" d="m689.97,740.22c-6.16-16.76-11.98-32.86-17.31-47.9,7.65,15.71,13.95,31.96,17.31,47.9Z"/>
        <path class="cls-2" d="m652.37,632.25c5.22,16.66,12.18,37.14,20.29,60.07-1.13-2.32-2.29-4.63-3.48-6.93-11.29-21.88-19.25-36.88-16.81-53.14Z"/>
        <path class="cls-2" d="m659.15,614.17c-3.77,6.43-5.93,12.33-6.78,18.08-8.36-26.67-12.27-43.56-9.39-45.03,2.48-1.27,8.23,8.92,16.17,26.95Z"/>
        <path class="cls-1" d="m619.36,975.73c-9.96,20.45-1.88,90.65,9.17,119.04-13.03-3.18-24.04-6.3-31.24-10.13-8.92-4.74-18.6-11.32-26.14-18.66,6.83-26.73,6.36-50.51-7.09-37.49-11.81,11.43-5.22,25.49,7.09,37.49-2.83,11.09-6.92,22.7-11.86,32.39-16.84,33.02-46.37,70.64-80.2,102.16-7.61,7.09-12.85,14.67-16.59,22.25-4.07-3.58-10.55-6.07-18.63-7.99-3.8-13.86-10.93-26.85-20.77-37.32,18.07-34.6,57.49-113.21,76.86-162.66,24.4-62.3,48.81-56.27,74.32-53.69,8.23.83,24.95,6.55,45.08,14.61Z"/>
        <path class="cls-1" d="m564.06,1028.49c13.45-13.02,13.92,10.76,7.09,37.49-12.31-12-18.9-26.06-7.09-37.49Z"/>
        <path class="cls-2" d="m462.5,1222.78c3.1,2.7,4.8,6.05,4.72,10.25-.09,5.17-4.16,5.57-10.01,3.18,1.36-4.41,3.06-8.92,5.29-13.43Z"/>
        <path class="cls-2" d="m462.5,1222.78c-2.23,4.51-3.93,9.02-5.29,13.43-3.11-1.27-6.73-3.32-10.52-5.87-.47-5.24-1.42-10.46-2.82-15.55,8.08,1.92,14.56,4.41,18.63,7.99Z"/>
        <path class="cls-2" d="m457.21,1236.21c-6.54,21.23-5.12,40.18-16.17,45.6-2.23,1.09-5.09,1.59-8.46,1.61,11.52-15.78,15.78-34.65,14.11-53.08,3.79,2.55,7.41,4.6,10.52,5.87Z"/>
        <path class="cls-1" d="m446.69,1230.34c1.67,18.43-2.59,37.3-14.11,53.08-22.55.11-67.39-21.6-92.64-31.8-29.11-11.77-54.21-40.62-54.6-53.87-.4-13.26,63.68,3.29,103.62,9.01,12.19,1.74,24.28,3.03,35.19,4.54,6.4,6.69,14.84,13.88,22.54,19.04Z"/>
        <path class="cls-2" d="m443.87,1214.79c1.4,5.09,2.35,10.31,2.82,15.55-7.7-5.16-16.14-12.35-22.54-19.04,7.2,1,13.88,2.1,19.72,3.49Z"/>
        <path class="cls-2" d="m443.87,1214.79c-5.84-1.39-12.52-2.49-19.72-3.49-7.14-7.47-11.76-14.32-10.05-17.1,1.11-1.81,4.35-7.8,9-16.73,9.84,10.47,16.97,23.46,20.77,37.32Z"/>
      </g>
      <g>
        <path class="cls-3" d="m571.15,1065.98c7.54,7.34,17.22,13.92,26.14,18.66,7.2,3.83,18.21,6.95,31.24,10.13,29.32,7.14,68.91,14.52,98.53,30.71,19.84,10.86,35.47,17.18,46.5,20.84,3.29,1.08,6.17,1.93,8.62,2.6,6.96,1.88,10.56,2.26,10.56,2.26,0,0-2.8,7.89-6.69,19.28-9.18,26.87-24.45,73.2-23.35,81.03.36,2.55,6.58,6.15,16.11,10.17,19.11,8.07,51.52,17.88,76.6,24.47,4.95,1.3,9.62,2.48,13.84,3.5,10.14,2.43,17.72,3.93,20.53,3.96,12.86.16,31.18-78.68,18.2-91.72-.93-.94-2.19-1.99-3.72-3.11-3.44-2.54-8.23-5.49-13.73-8.52-10.65-5.87-23.93-12.05-35.06-16.18-15.99-5.95-27.53-7.68-20.37,1.79,3.85,5.1,11.9,8.6,21.91,10.87,9.95,2.26,21.85,3.31,33.52,3.52,5.87.11,11.69,0,17.18-.27,17.55-.86,31.65-3.42,33.18-6.09,1.76-3.09,12.52-19.96,22.09-39.13,9.27-18.57,17.43-39.3,15.19-51.73-.56-3.1-1.77-5.69-3.76-7.6-11.91-11.39-17.78,28.42-11.43,59.33,3.43,16.63,10.38,30.68,21.84,32.82,1.96.37,3.89.58,5.8.64,1.32.04,2.62,0,3.9-.08,27.83-1.95,48.48-34.17,50.71-50.23,2.48-17.9-39.06-81.22-52.85-76.6-7.82,2.62-9.8,38.22-5.46,79.44,1.63,15.49,4.16,31.76,7.6,47.39,3.57,16.2,8.13,31.69,13.71,44.86,25.1,59.25,50.04,118.11,12.88,74.9-17.13-19.92-24.92-70.54-30.49-119.68-1.84-16.33-3.45-32.5-5.07-47.32-1.58-14.39-3.17-27.51-5.01-38.27-3.03-17.64-6.74-28.96-12.2-29.19-11.01-.46-18.31,9.83-24.83,25.75-.75,1.84-1.49,3.76-2.22,5.75-5.97,16.05-11.52,36.51-19.05,57.16-3.59,9.85-8.71,23.07-14.53,37.88-1.12,2.87-2.28,5.81-3.45,8.79-11.77,29.91-25.52,64.54-35.01,90.87-7.08,19.56-11.8,34.53-11.62,39.55.56,15.89,23.47,30.79,66.74,138.12,29.37,72.88,43.42,109.78,49.33,125.74,2.69,7.27,3.7,10.19,3.7,10.19,0,0-44.71,13.86-66.88,14.63-10.03.35-15.45-1.98-10.03-9.49,2.55-3.53,5.73-6.64,9.38-9.3,17.01-12.43,44.12-15.17,63.83-6.03,4.88,2.26,9.3,5.25,13.01,9,21.8,22.06,32.87,34.59,33.32,50.01.46,15.4-6.18,36.36-27.1,56.12-20.94,19.77-56.07,86.19-89.77,70.73-33.84-15.52,4.34-37.69,4.12-109.03-.1-29.08,1.8-43.54,3.24-52.01,1.67-9.82,2.72-11.59-.65-18.79-.89-1.89-2.09-4.16-3.66-7.06-10.35-19.05-57.92-85.62-92.51-133.45-8-11.05-15.3-21.11-21.29-29.34-32.1-44.11-46.63-66.45-26.03-128.2,4.88-14.65,8.98-27.77,12.43-39.36,11.08-37.34,15.34-58.72,17.11-63.85.56-1.62,1.39-12.34,2.32-27.68,1.67-27.7,3.69-70.46,5.1-101.89.4-9.02.76-17.11,1.04-23.64.16-3.61.3-6.74.41-9.29.2-4.79.32-7.53.32-7.53,0,0-1.12-3.42-3.17-9.67-1.6-4.85-3.75-11.41-6.39-19.38-26.63-80.63-101.99-306.37-136.4-384.56-7.94-18.03-13.69-28.22-16.17-26.95-2.88,1.47,1.03,18.36,9.39,45.03,5.22,16.66,12.18,37.14,20.29,60.07,5.33,15.04,11.15,31.14,17.31,47.9,32.62,88.67,74.72,195.97,102.38,264.5,1.77,4.41,3.49,8.66,5.14,12.73,2.61,6.41,5.04,12.38,7.3,17.86,1.87,4.58,3.62,8.82,5.22,12.67,6.07,14.61,10.04,23.75,11.12,25.51,12.7,20.91,21.95,43.88,28.13,68.51,1.07,4.27,2.05,8.59,2.93,12.96,1.28,6.27,2.37,12.63,3.28,19.1.59,4.18,1.11,8.4,1.54,12.66,3.24,31.32,2.49,64.66-1.6,99.41-6.44,54.81-21.19,113.11-41.71,172.43-90.01,260.26-291.06,540.2-389.25,631.39"/>
        <path class="cls-3" d="m571.15,1065.98c6.83-26.73,6.36-50.51-7.09-37.49-11.81,11.43-5.22,25.49,7.09,37.49Z"/>
        <path class="cls-3" d="m861.57,820.49c0,.11-1.88,4.14-4.98,12.9-3.7,10.46-9.14,27.69-15.19,53.09-15.61,65.58-21.97,126.81-36,131.46-.76.25-1.93.3-3.46.17-1.25-.1-2.74-.33-4.45-.66-3.84-.75-8.79-2.03-14.57-3.71-5.41-1.58-11.55-3.5-18.2-5.65-14.29-4.62-30.92-10.29-47.69-15.85-42.63-14.12-86.17-27.46-94.52-20.77-1.2.97-2.25,2.41-3.15,4.26-9.96,20.45-1.88,90.65,9.17,119.04,1.54,3.99,3.15,7.16,4.78,9.24,14.22,18.23,80.03,52.24,142.37,65.19,3.3.68,6.77,1.1,10.37,1.26,3.92.18,7.99.06,12.19-.33,16.86-1.53,35.64-7.3,53.95-15.17,40.96-17.59,79.58-45.64,89.1-60.03,1.52-2.3,2.29-4.25,2.22-5.75-.03-.86-.35-1.56-.95-2.11-9.99-9.08-64.14,41.65-93.3,54.93-8.19,3.74-14.41,4.52-17.13.19-7.6-12.07-17.62-50.64-28.79-73.95-7.15-14.9-14.76-23.57-22.51-15.16-13.68,14.85-1.41,72.26,1.35,95.84,1.25,10.74.53,14.46-5.51,3.94-1.19-2.07-2.22-4.26-3.11-6.54-13.59-34.95,5.2-92.9-29.8-112.46-25.35-14.17-82.32-41.28-124.4-58.13-20.13-8.06-36.85-13.78-45.08-14.61-25.51-2.58-49.92-8.61-74.32,53.69-19.37,49.45-58.79,128.06-76.86,162.66-4.65,8.93-7.89,14.92-9,16.73-1.71,2.78,2.91,9.63,10.05,17.1,6.4,6.69,14.84,13.88,22.54,19.04,3.79,2.55,7.41,4.6,10.52,5.87,5.85,2.39,9.92,1.99,10.01-3.18.08-4.2-1.62-7.55-4.72-10.25-4.07-3.58-10.55-6.07-18.63-7.99-5.84-1.39-12.52-2.49-19.72-3.49-10.91-1.51-23-2.8-35.19-4.54-39.94-5.72-104.02-22.27-103.62-9.01.39,13.25,25.49,42.1,54.6,53.87,25.25,10.2,70.09,31.91,92.64,31.8,3.37-.02,6.23-.52,8.46-1.61,11.05-5.42,9.63-24.37,16.17-45.6,1.36-4.41,3.06-8.92,5.29-13.43,3.74-7.58,8.98-15.16,16.59-22.25,33.83-31.52,63.36-69.14,80.2-102.16,4.94-9.69,9.03-21.3,11.86-32.39"/>
        <path class="cls-3" d="m973.65,723.87c-7.19,6.99-13.33,12.58-15.04,16.32-3.45,7.51,5.88,13.18,3.55,29.36-.52,3.59-1.61,7.69-3.54,12.45-9.41,23.22-91.87,57.35-102.03,51.39-1.31-.76-1.43-2.18-.05-4.37,3.34-5.31,4.87-8.33,5.03-8.53,0,0,0,0,0,0"/>
        <path class="cls-3" d="m973.65,723.87c17.98-1,38.79-4.88,46.23-26.34,8.65-24.96,1.98-60.85-9.81-77.61-11.83-16.8-32.7-19.59-47.1-30.68-14.43-11.12-6.92-11.71-14.43-11.12-7.52.59,1.42,11.03-4.88,12.64-6.31,1.6-23.09-10.46-11.97-.18,11.1,10.27,43.93,29.88,53.79,47.94,9.84,18.01,23.33,22.43,15.73,47.35-4.5,14.74-17.13,27.85-27.56,38Z"/>
        <path class="cls-3" d="m898.33,737.87c-.97-7.55-.45-16.4-.03-20.16,1-8.94-33.53-14.91-35.08-34.79-1.54-19.89,37.39-72.05,58.65-75.96,21.2-3.91,39.75,22.39,38.09,34.74-1.66,12.33-6.6,32.67-6.6,32.67,0,0,11.56-10.92,14.96-1.24,3.41,9.67,6.94,20.43-5.17,26.97-12.12,6.53-21.74,7.35-21.32,10.62.43,3.28,3.98,14.02,23.35,13.48,2.7-.08,5.55-.16,8.47-.33"/>
        <path class="cls-3" d="m898.33,737.87c14.06-5.62,27.55-3.9,16.58,7.17-11.1,11.2-15.25,3.24-16.58-7.17Z"/>
        <path class="cls-3" d="m1044.05,903.86c-9.07-13.57-15.75-24.89-13.47-28.88,5.24-9.18,38.7,2.93,39.68-23.22.98-26.2-31.79-49.43-48.78-65.42-15.11-14.22-22.92-23.93-59.32-16.79-4.66.92-9.79,2.11-15.47,3.6-50.21,13.21-73.81,15.28-70.84-11.48,1.27-11.43,12.03-19.64,22.48-23.8"/>
        <path class="cls-3" d="m1044.05,903.86l48.55-43.3s43.2,58.68,50.76,85.94c7.54,27.2-9.27,146.52-5.63,175.93,3.64,29.35,5.71,46.09-10.02,71.08-15.73,25-59.46,44.63-59.51,27.69-.05-16.97,15.76-25.05,19.35-46.67,3.58-21.64-35.89-.4-29.43-15.99,6.46-15.61,37.69-1.9,41.28-23.56,3.6-21.67-.12-68.26-10.38-116.51-10.31-48.46-2.43-36.31-11.92-61.24-5.38-14.15-21.24-35.68-33.05-53.37Z"/>
        <path class="cls-3" d="m996.98,876.41c20.87,16.98,44.01,30.18,44.01,30.18l3.06-2.73"/>
        <path class="cls-3" d="m996.98,876.41c3.29-6.43,5.63-11.41,6.33-14.15,2.86-11.17-49.42-50.2-36.99-20.65,4.84,11.5,17.29,23.93,30.66,34.8Z"/>
        <path class="cls-3" d="m816.61,806.64c-4.9,44.49-2.39,151.29-21.06,192.09-1,2.2-2.07,4.2-3.2,5.99-2.74,4.34-5.86,7.44-9.43,9.02-.47.22-.96.4-1.45.56-2.81.89-5.68,1.5-8.59,1.85-29.56,3.64-62.52-18.24-55.85-23.91,1.99-1.7,7.5-1.95,17.69.35,13.46,3.04,22.34,8.64,30,15.5,2.83,2.54,5.49,5.25,8.16,8.06,8.58,9.08,17.2,19.28,31.5,28.45,1.79,1.15,3.66,2.27,5.63,3.38,10.84,6.09,24.69,11.57,43.36,15.74,79.89,17.84,126.11-21.36,127.11-30.09,1.01-8.73,8.61-15.97-63.58-10.95-72.72,5.04-113.13,11.23-91.89-8.3,21.23-19.52,124.79,13.68,130.18-10.66,5.4-24.36-123.65-5.24-93-19.13,30.58-13.86,86.25.29,97.17-31.15,8.25-23.76,27.46-57.25,37.62-77.03"/>
        <path class="cls-3" d="m816.61,806.64c4.99,2.75,9.07,4.19,11.23,3.43,8.33-2.95,5.2-42.48-7.27-21.47-1.75,2.95-3,9.29-3.96,18.04Z"/>
        <path class="cls-3" d="m669.22,464.69c14.29,15.02,28.91,32.08,41.65,47.85,9.02,11.16,17.09,21.69,23.44,30.39,21.82,29.92,42.65,118.07,61.48,143.34,18.76,25.18,37.56,34.71,37.56,34.71,0,0-56.22,38.12-62.74,38.68-.32.03-.7-.06-1.12-.27-7.96-3.77-31.82-47.08-34.72-68.08-3.05-22.15-15.67-97.57-26.31-110.27-3.43-4.09-9.04-5.68-15.2-6.85-13.02-2.47-28.51-3.04-31.06-21.29-3.77-26.94,15.53-48.82,21.83-35.66,2.03,4.25,10.05,21.67,20.18,44.28,21.2,47.31,51.65,117.31,55.79,136.64,4.45,20.82,5.9,45.42,9.49,61.23,1.32,5.82,2.93,10.45,5.1,13.26,5.94,7.72,27.73,26.16,42.02,33.99"/>
        <path class="cls-3" d="m669.22,464.69c.15-1.13.38-2.29.71-3.49,7.11-26.01,10.19-55.42,10.19-55.42,0,0,62.36-47.56,61.24-88.71-.53-19.2-1.65-117.41-31.65-174.79-22.66-43.36-61.11-133.01-58.65-107.67,5.25,54.07-11.59,83.38-9.88,89.74,12.92,48.07,8.17,110.2,8.34,113.3,6.75,122.86-15.56,58.3-12.31,136.77.96,22.89-29.04,36.61,1.91,61.75,9.27,7.53,19.6,17.48,30.1,28.52Z"/>
        <path class="cls-3" d="m16.72,2030.95c105.87-39.44,106.94-32.68,155.36-74.49,13.52-11.68,26.21-89.57,37.92-103.11,53.67-62.07,88.76-96.72,86.86-130.56-3.82-68.02-26.18-116.85-28.92-133.77-2.76-16.94,57.18-48.41,56.67-96.79-.52-48.52-3.78-69.02,10.7-91.58s46.45-71.51,84.6-103.67c4.93-4.16,9.15-8.71,12.67-13.56,11.52-15.78,15.78-34.65,14.11-53.08-.47-5.24-1.42-10.46-2.82-15.55-3.8-13.86-10.93-26.85-20.77-37.32,0,0-.01-.02-.02-.03-30.18-32.14-52.62-36.91-50.9-72.51,1.72-35.67,16.55-33.59,27.58-55.99,11.04-22.41-20.65-87.18,31.9-99.25,52.3-12.02,100.93,1.21,132.6-26.61,31.63-27.79,22.01-69.63,52.17-83.01,30.08-13.36,52.1-8.2,68.62-41.67,8.74-17.69,9.26-37.68,4.92-58.18-3.36-15.94-9.66-32.19-17.31-47.9-1.13-2.32-2.29-4.63-3.48-6.93-11.29-21.88-19.25-36.88-16.81-53.14.85-5.75,3.01-11.65,6.78-18.08,4.06-6.92,10-14.43,18.19-23,5.95-6.22,11.26-11.84,15.92-16.98,4.17-4.58,7.82-8.77,10.95-12.67,15.37-19.08,18.41-30.92,8.98-45.37-.77-1.18-1.62-2.33-2.53-3.44-14.33-17.41-44.3-26.13-41.44-48.02"/>
      </g>
    </g>
  </g>
</svg>