<?xml version="1.0" encoding="utf-8"?>
<!-- Generator: Adobe Illustrator 28.1.0, SVG Export Plug-In . SVG Version: 6.00 Build 0)  -->
<svg version="1.1" id="Layer_2" xmlns="http://www.w3.org/2000/svg" xmlns:xlink="http://www.w3.org/1999/xlink" x="0px" y="0px"
	 viewBox="0 0 3150 2100" style="enable-background:new 0 0 3150 2100;" xml:space="preserve">
<style type="text/css">
	.st0{fill-rule:evenodd;clip-rule:evenodd;fill:#FFFFFF;}
	
		.st1{fill-rule:evenodd;clip-rule:evenodd;fill:none;stroke:#363435;stroke-width:5.9992;stroke-linecap:round;stroke-linejoin:round;stroke-miterlimit:10;}
</style>
<rect x="0.5" y="0.5" class="st0" width="3150" height="2100"/>
<path class="st1" d="M857.7,2092.5c-32.3-170-200.7-1051.5-220.1-1082.4c-21.3-33.9-110.9-147.4-109.1-128.5
	c1.9,19,89.4,116.9,123.9,123.6c34.7,6.7,132-4.3,138.7-11.3c6.7-7-7.2-26.4-14.8-15.9c-7.5,10.6-20.4,29.5,15.4,30.3
	c35.9,0.8,156.1-32.9,155.4-37.7c-0.7-4.8-20.9-10-3.6,27.7c17.4,38.1,42,96.7,67.2,88.7c25.2-8,10.9-106.5-6-114
	c-16.8-7.6-72.6-7.4-87-8.9c-14.4-1.5,17.9-35.6,15.9-23.7c-2.1,11.9-147.1,36.6-155.5,21c-8.3-15.6-7.5-28.6-11.2-67.4
	c-3.7-38.5-25.6-83.6-25.6-83.6s78.2,90.3,76.4,58.6c-1.7-31.4-91.1-77-91.1-77s31.6,15.1,54.5,9.6c22.9-5.5,40.1-44.2,25.8-66.9
	c-14.2-22.6-28.5-28.2-55.4-27.1c-26.8,1.1-54.5-5.7-54.5-5.7s-10.4,34.6,3.3,57.1c13.9,22.7,43.3,30.9,29,16
	c-14.2-14.8-76.1-32-92.7-38.8c-16.5-6.8-62.6-87.2-64.9-108.9c-2.3-21.6-18.8-20.4-20.9-40.8c-2.1-20.3,4.9-20.3,0.5-28.8
	c-4.4-8.5-14.9,3.3-13.9-9.4c1-12.7,2.4-22.2,23.1-14c20.9,8.3,33.6,27.3,36.7,33.7c3.1,6.4-8.4,42-5.2,49.5
	c3.2,7.6,51,69.9,71.3,77.6c20.4,7.8,92,23.6,108.7,19.2c16.7-4.4,45.6-19,55.8-16.7c10.2,2.3-5.8-32.4-2.9-46.8
	c2.9-14.4-25.8-50.5-46.7-54.4c-20.8-3.9-41.7-0.1-57.5,8.3c-15.8,8.4-29.4,25.2-29.9,31c-0.5,5.8-0.4,12.8,8.7,14.6
	c9.1,1.8,26.6-3.7,34.8,2.9c8.2,6.6,16.6,24.3,21.6,19.1c5-5.2,6-25.4,13.4-18.8c7.4,6.6,2.8,18.1,10.9,23.3
	c8.1,5.2,39.2,7.4,39.4-5.6c0.2-13-14.2-49-41.3-56.6c-27-7.5-58.9-7.7-66.2,10.8c-7.3,18.6-13.4,21.6-4.2,40.3
	c9.2,18.8,30.2,52.3,44.5,54.9c14.3,2.7,71.4-19.3,86.6-20.4c15.2-1.1,22.1,9.4,15.3,6c-6.7-3.4-23-54.4-20.4-56.2
	c2.6-1.8,40.3-9,42.8-9c2.5,0-19.8-14-23.1-25.7c-3.3-11.7-10-40.8-52.4-76.6c-41.8-35.3-47.2-39.5-50.3-45.1
	c-3.1-5.6-34.3-43.1-47.6-48.5c-13.3-5.4-46.5,5.6-34,11.7c12.6,6.1,29.7,4.5,31.3,10.7c1.6,6.3-31.3,8.8-23.4,15
	c7.9,6.2,27.3,3.2,37.3,12.9c10,9.8,27.1,30.2,42.8,52.2c15.9,22.2,57.9,61.9,64.3,72.9c6.5,11,14.3,37.6,26,38.3
	c11.7,0.7,41.7-9,43-5.3c1.4,3.7,28.2,77.3,29.9,94c1.7,16.8-62.3-32-41.1-22.9c21.4,9.1,43.5,33.6,45.7,53.5
	c2.2,20-49.4,119-58.6,84.4c-9.1-34.2,56.8-62.2,59.3-45.9c2.4,16.3,8.1,76.6,6.7,101.9c-1.4,25.4,46.1,145.4,27.2,182.8
	c-19,37.6-21.1,47.6-42.7,37.8c-21.5-9.8-134.8-76.1-142.1-93.3c-7.3-17.1-14.5-34.1-0.8-26.6c13.7,7.6,99.5,89.6,130,96.3
	c30.7,6.7,32.3-18.1,30.6-11.5c-1.7,6.6-33,138.2-45.2,139.4c-12.2,1.2-124.3-42.5-126.6-60.9c-2.3-18.4,18.2-108.1,25.8-81.8
	c7.7,26.5-65.8,158.4-44,210.3c22.1,52.7,195.1,191.5,229.7,209.8c34.8,18.4,81.1-11.9,46.1-17.4c-34.8-5.5-52.4,5.3-50.5,44.5
	c1.9,39.6-28.1,68.2-12.6,80.3c15.6,12.1,41,1.6,52.1-18.1c11-19.7,17.3-27.6,24.4-42c7.1-14.3,26-24.2,17.5-43.9
	c-8.5-19.6-27.6-17.9-47.1-38c-19.4-19.9-76-86-112.5-129.8c-36-43.2-105.2-60.7-85.5-50.5c19.8,10.3,42.7,3.5,51.3-11.6
	c8.6-15.1,18-81.9,19.8-87.7c1.8-5.8,8.6-70.8-8.5-81.3c-17-10.4-43-36.6-63.1-32.3c-20,4.3-87.5,54.1-100.3,47.1
	c-12.7-7-74.3-104.2-74.9-117.8c-0.7-13.5,132.6-62.3,138-52.7c5.5,9.6-51.7,38.7-87.2,50.7c-35.5,11.9-90.1,31.4-108.6,46.1
	c-18.5,14.8,36.2,130.7,49.7,170.3c13.7,40,29.4,82.3,48.8,70.3c19.4-12,44.1-22.8,36.5-29.1c-7.6-6.2-47.4,23.5-63.1,30.5
	c-15.6,7-37.6,18.8-51.9,13.1c-14.3-5.7-22.1-24.7-25.6-7.9c-3.5,16.8,22.2,50.5,42,59.2c19.9,8.7,49.2-9.8,64.9-9
	c15.7,0.7,46.1-1.3,49.1-20.2c3-18.8-42.5-76-44.8-103.9c-2.3-27.7-9.6-99.9-20.4-113.4c-10.8-13.4-46.7-3-16.4,4.4
	c30.5,7.5,84.4-11.4,108.5-23.8c24.1-12.4-36.5-187.9-36.1-225.3c0.4-37,5.3-57.7,1.7-66.9c-3.6-9.2-11.4-52.4-45.5-30
	c-34.1,22.4-63,70.1-69.2,35.7c-6.1-34,29.1-45-12.4-70c-41.1-24.6-109.2-40.3-102.7-94.8c6.5-53.9,21.8-41.1,8.9-77.4
	c-12.8-35.9-38.6-62.9-22.5-88.2c16-25.1,135.5-156.1,141.8-121.8c6.4,34.7-2.3,141.1,28.2,119.6c30.5-21.4,54-78.1,68.7-74.2
	c14.7,3.9,49.4,85.4,77.4,44.8c27.9-40.4,37.9-102.9,46.2-127.8c8.2-24.7,9.3-49.2,44.3-68.3c29.5-16.2,29.5-44.1,46.4-73.3
	c18.2-31.4,94.1-68.3,111.3-114.7c7.9-21.4,30.1-86.7-11.2-56.9c-33.3,24.1-103.5,78.3-116,94.2C858.2,177,795.5,267.8,776.5,289.4
	c-36.6,41.5-48.7,3.3-71.9,22c-23.2,18.8-33.3,49.5-46.3,76.4c-13.1,27-21.2,176.5-46.7,140.5c-25.2-35.6-25.4-79.4-62.9-60.1
	C511.2,487.5,473,595.4,435,612.7c-38,17.3,6.6,73.4,29.4,90.9c23,17.6,68.9,95.9,55.1,102.5c-13.8,6.6-114.2,119.3-94.9,147.4
	c19.4,28.3,78.7,36.6,83.4,60.3c4.7,23.8-35.7,39.5-23.6,63.7c12.1,24.4,74.7,129.3,79.1,122c4.3-7.3-25.3,132.3-6.1,171.6
	c19.4,39.8,50.5,64.9,50.5,64.9s-9.6,33.7-9.9,57.5c-0.2,23.9,29.3,55.1,33.3,68.8c4.1,13.8-93.6,13.2-116.3,52.3
	c-22.8,39.4-4.3,70.8-8.4,84.3c-1.5,5-10.6,55.5-58.8,86.3c-16,10.2-132.1,55.9-145.5,71.7c-56.4,66.7-18.6,109.1-34.3,115.1
	c-30.7,11.6-69.2,22.7-68.1,39.5c1.2,16.9,7.8,37.2-21.1,37.7c-28.8,0.5-159.4-15.5-159.4-15.5"/>
</svg>
