<?xml version="1.0" encoding="UTF-8"?>
<svg id="Layer_2" data-name="Layer 2" xmlns="http://www.w3.org/2000/svg" viewBox="0 0 3135.26 999.34">
  <defs>
    <style>
      .cls-1 {
        fill: none;
        fill-rule: evenodd;
        stroke: #dcdcdc;
        stroke-linecap: round;
        stroke-linejoin: round;
        stroke-width: 7.2px;
      }
    </style>
  </defs>
  <g id="Layer_1-2" data-name="Layer 1">
    <path class="cls-1" d="m3.6,986.29s699.56-15.32,621,1.75c-78.56,17.08-112.72-10.25-122.96-64.9-10.25-54.65,71.73-105.88,75.14-92.22,3.42,13.66-61.48-68.32-3.41-64.9,58.07,3.42,61.48,40.99,61.48,40.99,0,0,37.57-71.73,58.06-37.57,20.49,34.16,0,102.46,0,102.46,0,0,81.98-47.82,85.39-6.82,3.42,40.98-40.99,81.97-20.49,61.48,20.49-20.5,81.98-61.48,92.22-20.5,10.25,40.99-3.41,105.89-17.08,61.48-13.66-44.41,3.42-365.47-27.32-413.29-30.74-47.82-146.87-122.96-88.81-105.88,58.07,17.08,105.89,109.3,105.89,61.48s3.41-245.93,13.66-198.11c10.25,47.82,6.83,208.36,27.32,181.03,20.5-27.32,99.06-75.15,81.98-51.24-17.08,23.91-92.22,88.81-68.31,88.81s102.47-10.25,116.13-68.31c13.66-58.07-37.57-78.56-6.83-109.31,30.74-30.74,78.56-30.74,34.16-75.15-44.4-44.4-58.06,6.83-75.14-54.65-17.08-61.48-88.81-143.45-119.55-119.55-30.74,23.91-34.15,88.81-68.31,95.64-34.16,6.83-95.64-10.25-102.47,23.91-6.83,34.16,27.33,44.4,10.25,75.15-17.08,30.74-71.73,85.39-64.9,102.46,6.83,17.08,51.24,17.08,47.82,40.99-3.41,23.91-40.99,61.48-13.66,81.98,27.32,20.49,99.05-3.42,112.72,34.15,13.66,37.58,13.66,51.23,34.16,61.48,20.49,10.25,133.21-27.32,143.46-40.98,10.24-13.67-23.91-47.83-40.99,0-17.08,47.81,6.83,423.54,13.67,396.21,6.83-27.32,44.4-75.15,51.23-54.65,6.83,20.49,44.4,30.73,51.24,6.83,6.83-23.91,47.82-64.9,40.99-47.82-6.83,17.08-3.41,116.13-10.24,88.81-6.83-27.33-9.41-434.34-9.41-434.34,0,0-55.11-7.51-35.07,5.01,20.04,12.53,731.44-2.5,706.4,2.51-25.05,5.01-343.18-323.14-358.21-313.12-15.03,10.02-335.67,268.03-310.62,275.54,25.05,7.52,593.67-32.56,596.18,10.02,2.5,42.58-12.53,438.37,5.01,443.38,17.53,5.02-75.15,17.53-67.64-5.01,7.52-22.54,12.53-308.11-7.51-295.58-20.05,12.52-155.31,12.52-155.31,2.5s15.03-35.06,15.03-12.52-7.52,318.13,0,320.64c7.52,2.49,117.73,2.49,90.18-5.01-27.56-7.52-170.34,7.5-162.83-12.53,7.52-20.04,27.56-303.1,2.51-293.07-25.05,10.01-255.51-5.01-258.01,5-2.5,10.02-12.52,172.85,5.01,175.35,17.54,2.5,235.46,10.01,237.97-5.01,2.51-15.03-2.51-180.36-10.01-150.3-7.52,30.05-7.52,60.11-15.03,67.63-7.51,7.52-192.88,5.01-195.38-2.51-2.51-7.52-15.03-57.62,2.5-60.12,17.53-2.5,80.16,2.51,95.19,0,15.03-2.5,5.01-32.56,0-12.52-5.01,20.04-7.52,155.31,2.51,155.31s2.51,27.55,10.02,0c7.51-27.56-7.52-135.27,12.52-140.28,20.04-5,70.14,0,70.14,0,0,0,20.05,130.26,2.5,130.26s-190.38,5.01-192.88-2.5c-2.5-7.51,7.52-20.04,7.52-20.04,0,0,12.52,165.33,2.51,170.34-10.02,5-57.61,5-20.04-2.51,37.58-7.52,566.12,12.52,566.12,12.52,0,0,2.51-415.82-5.01-413.32-7.51,2.51,618.73-2.5,618.73-2.5,0,0,12.53-160.32-5-145.28-17.54,15.03-681.35-2.51-666.33,2.5,15.04,5.01-187.87-192.88-187.87-192.88,0,0,250.49-192.88,253-202.9,2.51-10.01,5.01-30.06,2.51-10.01-2.51,20.04,596.18,17.53,596.18,17.53,0,0,12.52,335.67,2.51,348.19-10.02,12.53,7.51-318.13-27.56-320.63-35.07-2.51-548.59-2.51-548.59-2.51,0,0,7.52-45.09,5.01-15.04-2.51,30.06-242.99,172.85-227.95,205.41,15.02,32.57,145.28,200.41,172.84,202.91,27.55,2.5,596.18-7.52,596.18,5s17.53,581.16-2.5,508.52c-20.04-72.64-27.56-338.17-15.03-338.17s232.96-2.51,232.96-2.51c0,0,2.5,62.63-5.01,62.63s-235.47,2.5-192.89-7.52c42.58-10.02,157.81-17.54,160.32-5.01,2.51,12.53-7.52,300.59,2.51,300.59s40.08,5.01,10.01,0c-30.05-5-295.58-7.51-295.58-7.51,0,0,25.05-343.18-5.01-345.69-30.06-2.5-350.69-12.52-360.71-2.5-10.02,10.02,5.01,225.44-2.51,222.95-7.52-2.5,343.18,10.01,343.18,0s20.04-105.21,10.02-105.21-328.16-25.05-328.16-15.03-12.52,22.54,0,25.05c12.53,2.5,308.11,22.54,310.62,12.53,2.51-10.02,27.55-92.69,5.01-95.19-22.54-2.51-82.66-15.03-82.66-7.51s5.01,165.32-7.52,167.83c-12.52,2.5-10.01,20.04-12.52,2.5-2.51-17.53,5.01-172.84-17.53-175.35-22.54-2.5-100.2-2.5-100.2-2.5,0,0,20.04,175.35,10.01,175.35s-37.57,7.52-35.07-5.01c2.51-12.52,5.01-172.84-7.51-172.84s-65.13-5.01-65.13,5.01,12.53,325.64,0,330.66c-12.52,5.01-115.22,0-62.62-7.52,52.6-7.51,706.39,32.57,711.41,22.55,5.01-10.01-15.03-92.68,30.06-90.18,45.09,2.51,52.6,30.06,60.12,10.02,7.51-20.05,25.05-47.6,40.08-32.57,15.04,15.03,5.01,65.12,5.01,50.1s45.09-32.57,50.1-25.05c5.01,7.52,42.34,18.81,24.81,28.82-17.53,10.02,17.53-20.04,27.56-10.01,10.01,10.01,40.32,38.81-4.77,41.31-45.09,2.49-62.62-22.56-80.16-7.52-17.53,15.02-80.16,37.57-75.15,5.01,5.01-32.57,12.53-355.71-7.52-395.79-20.04-40.08-92.68-80.16-80.15-77.66,12.52,2.51,72.64,42.58,75.15,27.56,2.51-15.04-17.54-140.28-7.52-122.74,10.02,17.53,30.06,130.26,35.07,102.7,5-27.55,17.53-263.02,22.54-217.93,5.01,45.09,0,235.47,10.01,225.44,10.02-10.01,47.6-52.61,37.58-30.05-10.02,22.54-45.09,67.63-45.09,85.16s42.58,47.59,50.1,32.57c7.51-15.03,32.56-45.09,65.12-57.61,32.57-12.52,52.61-10.01,42.59-50.1-10.02-40.08,20.04-72.64,25.05-110.22,5-37.57,2.5-77.65-27.56-97.69-30.06-20.04,10.02-60.11-30.06-87.67-40.08-27.56-82.67-30.06-122.74-32.57-40.08-2.5-90.18-45.09-105.21-30.06-15.04,15.03,17.53,75.15,2.5,105.21-15.04,30.06-90.18,62.63-85.17,95.19,5.01,32.57,45.09,37.58,22.54,62.63-22.54,25.05-45.09,42.58-37.58,67.63,7.52,25.05,57.62,47.59,57.62,72.64s-5.01,42.59,20.04,45.1c25.05,2.51,107.72,37.57,120.25,35.06,12.52-2.5,15.02-37.57,12.52-2.5-2.51,35.07-10.01,150.3-10.01,205.41s25.05,172.85,25.05,172.85c0,0-172.85-10.02-90.18-12.53,82.67-2.5,639.59-1.01,639.59-1.01"/>
  </g>
</svg>