<?xml version="1.0" encoding="UTF-8" standalone="no"?>
<!-- Generator: Adobe Illustrator 28.1.0, SVG Export Plug-In . SVG Version: 6.00 Build 0)  -->

<svg
   version="1.1"
   id="Layer_2_00000071526216170783186610000015123100983282597052_"
   x="0px"
   y="0px"
   viewBox="0 0 3135.3 999.3"
   style="enable-background:new 0 0 3135.3 999.3;"
   xml:space="preserve"
   sodipodi:docname="home.svg"
   inkscape:version="1.3 (0e150ed6c4, 2023-07-21)"
   xmlns:inkscape="http://www.inkscape.org/namespaces/inkscape"
   xmlns:sodipodi="http://sodipodi.sourceforge.net/DTD/sodipodi-0.dtd"
   xmlns="http://www.w3.org/2000/svg"
   xmlns:svg="http://www.w3.org/2000/svg"><defs
   id="defs1" /><sodipodi:namedview
   id="namedview1"
   pagecolor="#ffffff"
   bordercolor="#000000"
   borderopacity="0.25"
   inkscape:showpageshadow="2"
   inkscape:pageopacity="0.0"
   inkscape:pagecheckerboard="0"
   inkscape:deskcolor="#d1d1d1"
   inkscape:zoom="0.36168787"
   inkscape:cx="1567.65"
   inkscape:cy="499.04908"
   inkscape:window-width="1700"
   inkscape:window-height="871"
   inkscape:window-x="-9"
   inkscape:window-y="-9"
   inkscape:window-maximized="1"
   inkscape:current-layer="Layer_2_00000071526216170783186610000015123100983282597052_" />&#10;<style
   type="text/css"
   id="style1">&#10;	.st0{fill:#0F0F0F;stroke:#DCDCDC;stroke-width:7.2;stroke-linecap:round;stroke-linejoin:round;}&#10;</style>&#10;<g
   id="Layer_1-2"
   style="fill:none;fill-opacity:1;stroke:#0f0f0f;stroke-opacity:1">&#10;	<path
   class="st0"
   d="M3.6,986.3c0,0,699.6-15.3,621,1.8c-78.6,17.1-112.7-10.2-123-64.9c-10.2-54.7,71.7-105.9,75.1-92.2   c3.4,13.7-61.5-68.3-3.4-64.9s61.5,41,61.5,41s37.6-71.7,58.1-37.6s0,102.5,0,102.5s82-47.8,85.4-6.8c3.4,41-41,82-20.5,61.5   c20.5-20.5,82-61.5,92.2-20.5c10.2,41-3.4,105.9-17.1,61.5c-13.7-44.4,3.4-365.5-27.3-413.3c-30.7-47.8-146.9-123-88.8-105.9   c58.1,17.1,105.9,109.3,105.9,61.5s3.4-245.9,13.7-198.1s6.8,208.4,27.3,181c20.5-27.3,99.1-75.1,82-51.2s-92.2,88.8-68.3,88.8   s102.5-10.2,116.1-68.3c13.7-58.1-37.6-78.6-6.8-109.3c30.7-30.7,78.6-30.7,34.2-75.1c-44.4-44.4-58.1,6.8-75.1-54.6   S856.9,79.5,826.1,103.4c-30.7,23.9-34.2,88.8-68.3,95.6s-95.6-10.2-102.5,23.9c-6.8,34.2,27.3,44.4,10.2,75.1   c-17.1,30.7-71.7,85.4-64.9,102.5c6.8,17.1,51.2,17.1,47.8,41c-3.4,23.9-41,61.5-13.7,82c27.3,20.5,99-3.4,112.7,34.2   c13.7,37.6,13.7,51.2,34.2,61.5c20.5,10.2,133.2-27.3,143.5-41c10.2-13.7-23.9-47.8-41,0c-17.1,47.8,6.8,423.5,13.7,396.2   c6.8-27.3,44.4-75.2,51.2-54.7c6.8,20.5,44.4,30.7,51.2,6.8c6.8-23.9,47.8-64.9,41-47.8s-3.4,116.1-10.2,88.8   c-6.8-27.3-9.4-434.3-9.4-434.3s-55.1-7.5-35.1,5c20,12.5,731.4-2.5,706.4,2.5c-25.1,5-343.2-323.1-358.2-313.1   c-15,10-335.7,268-310.6,275.5c25.1,7.5,593.7-32.6,596.2,10c2.5,42.6-12.5,438.4,5,443.4c17.5,5-75.2,17.5-67.6-5   c7.5-22.5,12.5-308.1-7.5-295.6c-20.1,12.5-155.3,12.5-155.3,2.5s15-35.1,15-12.5s-7.5,318.1,0,320.6c7.5,2.5,117.7,2.5,90.2-5   c-27.6-7.5-170.3,7.5-162.8-12.5c7.5-20,27.6-303.1,2.5-293.1c-25.1,10-255.5-5-258,5c-2.5,10-12.5,172.9,5,175.4   c17.5,2.5,235.5,10,238-5c2.5-15-2.5-180.4-10-150.3c-7.5,30-7.5,60.1-15,67.6s-192.9,5-195.4-2.5c-2.5-7.5-15-57.6,2.5-60.1   s80.2,2.5,95.2,0c15-2.5,5-32.6,0-12.5s-7.5,155.3,2.5,155.3s2.5,27.5,10,0c7.5-27.6-7.5-135.3,12.5-140.3c20-5,70.1,0,70.1,0   s20.1,130.3,2.5,130.3s-190.4,5-192.9-2.5s7.5-20,7.5-20s12.5,165.3,2.5,170.3c-10,5-57.6,5-20-2.5c37.6-7.5,566.1,12.5,566.1,12.5   s2.5-415.8-5-413.3c-7.5,2.5,618.7-2.5,618.7-2.5s12.5-160.3-5-145.3c-17.5,15-681.3-2.5-666.3,2.5c15,5-187.9-192.9-187.9-192.9   s250.5-192.9,253-202.9c2.5-10,5-30.1,2.5-10c-2.5,20,596.2,17.5,596.2,17.5s12.5,335.7,2.5,348.2c-10,12.5,7.5-318.1-27.6-320.6   c-35.1-2.5-548.6-2.5-548.6-2.5s7.5-45.1,5-15c-2.5,30.1-243,172.9-227.9,205.4c15,32.6,145.3,200.4,172.8,202.9   c27.6,2.5,596.2-7.5,596.2,5s17.5,581.2-2.5,508.5c-20-72.6-27.6-338.2-15-338.2s233-2.5,233-2.5s2.5,62.6-5,62.6   s-235.5,2.5-192.9-7.5s157.8-17.5,160.3-5c2.5,12.5-7.5,300.6,2.5,300.6s40.1,5,10,0c-30.1-5-295.6-7.5-295.6-7.5   s25.1-343.2-5-345.7c-30.1-2.5-350.7-12.5-360.7-2.5s5,225.4-2.5,223c-7.5-2.5,343.2,10,343.2,0s20-105.2,10-105.2   s-328.2-25-328.2-15s-12.5,22.5,0,25c12.5,2.5,308.1,22.5,310.6,12.5c2.5-10,27.6-92.7,5-95.2c-22.5-2.5-82.7-15-82.7-7.5   s5,165.3-7.5,167.8c-12.5,2.5-10,20-12.5,2.5c-2.5-17.5,5-172.8-17.5-175.3c-22.5-2.5-100.2-2.5-100.2-2.5s20,175.3,10,175.3   s-37.6,7.5-35.1-5c2.5-12.5,5-172.8-7.5-172.8s-65.1-5-65.1,5s12.5,325.6,0,330.7c-12.5,5-115.2,0-62.6-7.5   c52.6-7.5,706.4,32.6,711.4,22.5c5-10-15-92.7,30.1-90.2c45.1,2.5,52.6,30.1,60.1,10c7.5-20,25.1-47.6,40.1-32.6   c15,15,5,65.1,5,50.1s45.1-32.6,50.1-25s42.3,18.8,24.8,28.8c-17.5,10,17.5-20,27.6-10c10,10,40.3,38.8-4.8,41.3   c-45.1,2.5-62.6-22.6-80.2-7.5c-17.5,15-80.2,37.6-75.1,5c5-32.6,12.5-355.7-7.5-395.8c-20-40.1-92.7-80.2-80.1-77.7   c12.5,2.5,72.6,42.6,75.1,27.6c2.5-15-17.5-140.3-7.5-122.7c10,17.5,30.1,130.3,35.1,102.7c5-27.5,17.5-263,22.5-217.9   s0,235.5,10,225.4c10-10,47.6-52.6,37.6-30c-10,22.5-45.1,67.6-45.1,85.2s42.6,47.6,50.1,32.6c7.5-15,32.6-45.1,65.1-57.6   c32.6-12.5,52.6-10,42.6-50.1c-10-40.1,20-72.6,25.1-110.2c5-37.6,2.5-77.6-27.6-97.7s10-60.1-30.1-87.7s-82.7-30.1-122.7-32.6   c-40.1-2.5-90.2-45.1-105.2-30.1c-15,15,17.5,75.1,2.5,105.2c-15,30.1-90.2,62.6-85.2,95.2c5,32.6,45.1,37.6,22.5,62.6   c-22.5,25-45.1,42.6-37.6,67.6c7.5,25,57.6,47.6,57.6,72.6s-5,42.6,20,45.1c25.1,2.5,107.7,37.6,120.2,35.1   c12.5-2.5,15-37.6,12.5-2.5c-2.5,35.1-10,150.3-10,205.4s25.1,172.8,25.1,172.8s-172.9-10-90.2-12.5c82.7-2.5,639.6-1,639.6-1"
   id="path1"
   style="fill:none;fill-opacity:1;stroke:#0f0f0f;stroke-opacity:1" />&#10;</g>&#10;</svg>
