<?xml version="1.0" encoding="utf-8"?>
<!-- Generator: Adobe Illustrator 28.1.0, SVG Export Plug-In . SVG Version: 6.00 Build 0)  -->
<svg version="1.1" id="Layer_2_00000024691834120654314390000002179237615238890132_"
	 xmlns="http://www.w3.org/2000/svg" xmlns:xlink="http://www.w3.org/1999/xlink" x="0px" y="0px" viewBox="0 0 3147.2 1011.3"
	 style="enable-background:new 0 0 3147.2 1011.3;" xml:space="preserve">
<style type="text/css">
	.st0{fill:none;stroke:#332F2F;stroke-width:7.2;stroke-linecap:round;stroke-linejoin:round;}
</style>
<g id="Layer_1-2">
	<path class="st0" d="M6,746.2c0,0,928.4-2.4,928.4,7.1s-84-246.7-73.8-255c10.3-8.3,239.5-38.1,248.1-27.4
		c8.6,10.7,89,225,75.3,247.6c-13.7,22.6-229.3,34.5-234.4,34.5s-77-238.1-70.2-242.8c6.8-4.8,210.4-35.7,219-26.2
		c8.6,9.5,70.2,214.3,66.7,219s-109.5,4.8-112.9,16.7c-3.4,11.9,10.3,20.2,25.7,10.7c15.4-9.5,0-13.1-37.6-13.1
		s-85.5,11.9-85.5,11.9s172.8-7.1,205.3-10.7c32.5-3.6-17.1-165.5-3.4-183.3s37.6-23.8,59.9-19c22.2,4.8,682.6,138.1,698,134.5
		c15.4-3.6,147.4-287.3,143.9-300.4c-3.4-13.1-674.3-162.6-688-153.1c-13.7,9.5-162.5,304.7-143.7,297.6s49.6-107.1,92.4-105.9
		s419.2,77.4,420.9,86.9c1.7,9.5-37.6,114.3-56.5,116.7c-18.8,2.4-232.7-45.2-232.7-52.4s22.2-113.1,54.8-108.3
		s407.2,85.7,412.3,82.1c5.1-3.6,77-148.8,73.6-160.7c-3.4-11.9-583.4-146.4-598.8-136.9c-15.4,9.5-85.6,169-71.9,145.2
		c13.7-23.8,70.2-152.4,66.7-158.3c-3.4-5.9-6.8-20.2-6.8-20.2s-58.2-159.5-37.6-164.3c20.5-4.8,845.2,166.6,845.2,166.6
		s0-5.9-1.7-9.5c-1.7-3.6-821.2-182.1-828.1-169c-6.8,13.1,37.6,169,49.6,176.2c12,7.1,598.8,138.1,615.9,135.7
		c17.1-2.4,121.5-122.6,128.3-122.6S1305.4,40,1385.8,43.6c80.4,3.6,811,147.6,804.1,157.1c-6.8,9.5-130,127.4-135.2,127.4
		c3.1,0.5-79.9,164.8-78.8,194.9c15.4,31,140.4,30.1,130.2,40.8c-10.3,10.7,27.4-47.6,148.9-20.2c121.5,27.4,85.5,117.8,66.7,144
		s-112.9,63.1-208.7,20.2c-95.8-42.8-32.5-126.2,5.1-139.3s133.4,11.9,126.6,7.1c-6.8-4.8-68.4-9.5-106.1,8.3
		c-37.6,17.8-34.2,72.6,15.4,95.2c49.6,22.6,116.3,9.5,131.7-15.5c15.4-25,10.3-69-17.1-76.2c-27.4-7.1,5.1,26.2-20.5,36.9
		c-25.7,10.7-30.8-13.1-68.4-11.9s-30.8,44-6.8,46.4c23.9,2.4-8.6,4.8-15.4,10.7c-6.8,6-30.8,34.5-17.1,36.9
		c13.7,2.4,29.1-14.3,29.1-17.9s-18.8-14.3-54.8-15.5c-35.9-1.2-80.4-3.6-80.4,15.5s5.1,42.8-13.7,40.5
		c-18.8-2.4-249.8-19-258.3-13.1c-8.6,6-71.9,260.7-83.8,251.2c-12-9.5,77-252.3,70.1-257.1s-217.3-57.1-237.8-48.8
		c-20.5,8.3-136.9,265.4-107.8,269s119.8-8.3,181.3,9.5c61.6,17.9,83.8,26.2,111.2,29.8c27.4,3.6,220.7,42.9,227.6,34.5
		c6.8-8.3,107.8-273.8,94.1-264.2c-13.7,9.5-95.8,252.4-112.9,248.8c-17.1-3.6-213.9-46.4-184.8-28.6
		c29.1,17.9,138.6,27.4,179.6,34.5s1242.1,1.5,1242.1,1.5"/>
</g>
</svg>
