<?xml version="1.0" encoding="UTF-8" standalone="no"?>
<svg
   id="Layer_2"
   data-name="Layer 2"
   viewBox="0 0 132.71 42"
   version="1.1"
   sodipodi:docname="logo.svg"
   inkscape:version="1.3 (0e150ed6c4, 2023-07-21)"
   xmlns:inkscape="http://www.inkscape.org/namespaces/inkscape"
   xmlns:sodipodi="http://sodipodi.sourceforge.net/DTD/sodipodi-0.dtd"
   xmlns="http://www.w3.org/2000/svg"
   xmlns:svg="http://www.w3.org/2000/svg">
  <sodipodi:namedview
     id="namedview4"
     pagecolor="#ffffff"
     bordercolor="#000000"
     borderopacity="0.25"
     inkscape:showpageshadow="2"
     inkscape:pageopacity="0.0"
     inkscape:pagecheckerboard="0"
     inkscape:deskcolor="#d1d1d1"
     inkscape:zoom="8.5449472"
     inkscape:cx="66.355003"
     inkscape:cy="21.006566"
     inkscape:window-width="1700"
     inkscape:window-height="871"
     inkscape:window-x="-9"
     inkscape:window-y="-9"
     inkscape:window-maximized="1"
     inkscape:current-layer="Layer_2" />
  <defs
     id="defs1">
    <style
       id="style1">&#10;      .cls-1 {&#10;        fill: #231f20;&#10;        stroke-width: 0px;&#10;      }&#10;    </style>
  </defs>
  <g
     id="Layer_1-2"
     data-name="Layer 1"
     style="fill:#2c3863;fill-opacity:1">
    <g
       id="g4"
       style="fill:#2c3863;fill-opacity:1">
      <path
         class="cls-1"
         d="m27.46,38.13l-3.83,3.87L0,22.27,23.62,2.55l3.83,3.9-19.16,15.75,19.16,15.93Z"
         id="path1"
         style="fill:#2c3863;fill-opacity:1" />
      <path
         class="cls-1"
         d="m60.67,3.56l-17.41,35h-4.21L56.46,3.56h4.21Z"
         id="path2"
         style="fill:#2c3863;fill-opacity:1" />
      <path
         class="cls-1"
         d="m92.96,19.56c0,2.43-.22,4.64-.67,6.63-.44,1.99-1.08,3.77-1.9,5.35l5.18,7.02h-5.93l-2.26-3.04c-1.21,1.11-2.57,1.96-4.07,2.55s-3.12.88-4.86.88-3.13-.25-4.41-.75-2.36-1.2-3.23-2.1c-.87-.9-1.54-1.97-1.99-3.22-.45-1.24-.68-2.62-.68-4.12,0-1.41.17-2.67.51-3.77.34-1.1.8-2.09,1.39-2.95s1.25-1.63,2.01-2.28c.76-.66,1.56-1.27,2.4-1.82l-.56-.86c-.96-1.28-1.67-2.58-2.14-3.9-.47-1.32-.71-2.61-.71-3.87,0-1.34.2-2.57.59-3.71.39-1.13.97-2.11,1.73-2.94.76-.83,1.7-1.47,2.82-1.94,1.12-.46,2.4-.7,3.84-.7s2.6.21,3.64.64c1.04.43,1.92,1.01,2.62,1.76.7.74,1.23,1.6,1.58,2.58s.53,2.01.53,3.11c0,1.39-.22,2.61-.65,3.66-.44,1.05-1.01,1.98-1.72,2.79s-1.52,1.53-2.44,2.16c-.92.63-1.85,1.24-2.81,1.84l6.62,8.97c.75-2.19,1.1-4.84,1.05-7.94h4.52Zm-20.03,8.75c0,.97.14,1.86.43,2.66.29.81.7,1.5,1.23,2.07s1.18,1.02,1.95,1.33c.77.31,1.63.47,2.59.47,2.19,0,4.11-.88,5.76-2.63l-8.04-10.92c-.57.42-1.1.87-1.58,1.34-.48.48-.89,1-1.24,1.56-.35.57-.61,1.19-.81,1.87-.19.68-.29,1.43-.29,2.25Zm10.92-19.32c0-1.37-.35-2.45-1.06-3.22-.71-.78-1.67-1.17-2.88-1.17-.67,0-1.27.12-1.78.36-.51.24-.95.57-1.3.99-.35.42-.62.92-.8,1.48-.18.57-.27,1.18-.27,1.84,0,.99.17,1.91.51,2.76s.88,1.79,1.62,2.81l.68.96c.72-.44,1.41-.88,2.05-1.33.64-.45,1.2-.94,1.68-1.48.48-.54.86-1.13,1.14-1.78.28-.65.42-1.39.42-2.21Z"
         id="path3"
         style="fill:#2c3863;fill-opacity:1" />
      <path
         class="cls-1"
         d="m105.29,6.45l3.8-3.9,23.62,19.72-23.62,19.72-3.8-3.87,19.16-15.79-19.16-15.89Z"
         id="path4"
         style="fill:#2c3863;fill-opacity:1" />
    </g>
  </g>
</svg>
