<?xml version="1.0" encoding="utf-8"?>
<!-- Generator: Adobe Illustrator 28.1.0, SVG Export Plug-In . SVG Version: 6.00 Build 0)  -->
<svg version="1.1" id="Layer_2_00000147939675191745217330000005358269262986331286_"
	 xmlns="http://www.w3.org/2000/svg" xmlns:xlink="http://www.w3.org/1999/xlink" x="0px" y="0px" viewBox="0 0 143.9 46.5"
	 style="enable-background:new 0 0 143.9 46.5;" xml:space="preserve">
<style type="text/css">
	.st0{fill:url(#SVGID_1_);}
	.st1{fill:url(#SVGID_00000098204248461251867190000000616566500500558505_);}
	.st2{fill:url(#SVGID_00000001662733995815519400000004023620056749310396_);}
	.st3{fill:url(#SVGID_00000158713951835042871890000006528064777430523300_);}
</style>
<g id="Layer_1-2">
	<g>
		<radialGradient id="SVGID_1_" cx="25.4076" cy="23.7962" r="21.3336" gradientUnits="userSpaceOnUse">
			<stop  offset="0.2739" style="stop-color:#FFFFFF"/>
			<stop  offset="0.7882" style="stop-color:#5FC3B0"/>
		</radialGradient>
		<path class="st0" d="M0,18.4L31,5.3l2.4,7.1L9.3,22.1l24.1,9.6L31,38.8L0,25.7V18.4z"/>
		
			<linearGradient id="SVGID_00000125587252714714715400000009781773678106360216_" gradientUnits="userSpaceOnUse" x1="43.06" y1="23.23" x2="65.14" y2="23.23">
			<stop  offset="4.714300e-02" style="stop-color:#FFFFFF"/>
			<stop  offset="0.8275" style="stop-color:#231F20"/>
		</linearGradient>
		<path style="fill:url(#SVGID_00000125587252714714715400000009781773678106360216_);" d="M49,46.5h-6L59.3,0h5.8
			C65.1,0,49,46.5,49,46.5z"/>
		
			<radialGradient id="SVGID_00000099653779933840939860000012979909810479990190_" cx="86.36" cy="20.77" r="16.2368" fx="96.1516" fy="21.524" gradientUnits="userSpaceOnUse">
			<stop  offset="0" style="stop-color:#FFFFFF"/>
			<stop  offset="0.784" style="stop-color:#231F20"/>
		</radialGradient>
		<path style="fill:url(#SVGID_00000099653779933840939860000012979909810479990190_);" d="M71.2,28.8c0-1.2,0.2-2.3,0.6-3.3
			s0.9-1.9,1.5-2.7c0.6-0.8,1.3-1.5,2.2-2.1c0.8-0.6,1.7-1.1,2.6-1.6c-1-1-1.7-2.1-2.3-3.3c-0.6-1.1-0.9-2.4-0.9-3.6
			c0-2.7,0.8-4.8,2.5-6.3c1.7-1.5,3.8-2.3,6.5-2.3c1.4,0,2.6,0.2,3.7,0.6c1.1,0.4,2,0.9,2.7,1.6c0.7,0.7,1.2,1.5,1.6,2.4
			C92,9,92.2,10,92.2,11s-0.2,2-0.5,2.9c-0.3,0.9-0.8,1.7-1.4,2.5s-1.2,1.4-2,2.1c-0.8,0.6-1.6,1.2-2.4,1.7l6.6,6.6
			c0.4-0.8,0.8-1.8,1.1-2.8c0.3-1,0.5-2.1,0.7-3l4.8,0.6c-0.2,1.3-0.5,2.7-1,4.2s-1.2,3-2,4.4c1.1,1.2,2.1,2.4,3.1,3.7
			s1.8,2.5,2.4,3.8h-6.1c-0.3-0.5-0.7-1.1-1.2-1.8c-0.5-0.6-1-1.2-1.6-1.8c-1.3,1.2-2.8,2.1-4.5,2.9c-1.7,0.7-3.6,1.1-5.8,1.1
			s-3.9-0.3-5.4-0.9c-1.4-0.6-2.6-1.3-3.5-2.2c-0.9-0.9-1.5-1.9-1.9-3S71.2,29.8,71.2,28.8L71.2,28.8z M76.8,28.4
			c0,0.5,0.1,1.1,0.3,1.7s0.5,1.1,1,1.6c0.5,0.5,1.1,0.9,1.8,1.2s1.7,0.5,2.7,0.5c1.4,0,2.7-0.2,3.9-0.7c1.2-0.5,2.2-1.1,3-1.9
			l-8.4-8.6c-0.5,0.3-1,0.6-1.5,0.9c-0.5,0.4-1,0.8-1.4,1.3c-0.4,0.5-0.8,1.1-1,1.7S76.7,27.5,76.8,28.4L76.8,28.4z M87.2,11.2
			c0-0.9-0.3-1.7-0.9-2.4s-1.5-1-2.6-1c-1.2,0-2.1,0.4-2.8,1.1c-0.6,0.7-1,1.7-1,2.8c0,0.9,0.3,1.9,0.8,2.8c0.5,0.9,1.2,1.8,2.1,2.6
			c0.6-0.3,1.2-0.7,1.7-1.1c0.5-0.4,1-0.8,1.4-1.3c0.4-0.5,0.7-1,1-1.6C87,12.6,87.2,12,87.2,11.2L87.2,11.2z"/>
		
			<radialGradient id="SVGID_00000164492157063809449050000002590627454907033510_" cx="127.195" cy="22.06" r="16.7425" gradientUnits="userSpaceOnUse">
			<stop  offset="0" style="stop-color:#FFFFFF"/>
			<stop  offset="0.1079" style="stop-color:#F7FCFB"/>
			<stop  offset="0.2789" style="stop-color:#E0F3F1"/>
			<stop  offset="0.4917" style="stop-color:#BAE5E0"/>
			<stop  offset="0.7359" style="stop-color:#87D1C9"/>
			<stop  offset="0.801" style="stop-color:#78CBC2"/>
		</radialGradient>
		<path style="fill:url(#SVGID_00000164492157063809449050000002590627454907033510_);" d="M143.9,25.7l-31,13.1l-2.4-7.1l24.1-9.6
			l-24.1-9.6l2.4-7.1l31,13.1V25.7L143.9,25.7z"/>
	</g>
</g>
</svg>
