<?xml version="1.0" encoding="UTF-8"?>
<svg id="Layer_2" data-name="Layer 2" xmlns="http://www.w3.org/2000/svg" viewBox="0 0 143.9 46.46">
  <defs>
    <style>
      .cls-1 {
        fill: #231f20;
        stroke-width: 0px;
      }
    </style>
  </defs>
  <g id="Layer_1-2" data-name="Layer 1">
    <g>
      <path class="cls-1" d="m0,18.4L31.03,5.29l2.38,7.13-24.12,9.65,24.12,9.65-2.38,7.13L0,25.73v-7.33Z"/>
      <path class="cls-1" d="m49.01,46.46h-5.95L59.29,0h5.85l-16.13,46.46Z"/>
      <path class="cls-1" d="m71.18,28.75c0-1.22.18-2.32.55-3.31.37-.99.86-1.89,1.49-2.69.62-.8,1.34-1.5,2.16-2.11.82-.61,1.67-1.15,2.57-1.63-.96-1.02-1.74-2.11-2.33-3.26-.59-1.15-.89-2.37-.89-3.65,0-2.69.82-4.78,2.47-6.29,1.65-1.5,3.82-2.26,6.5-2.26,1.38,0,2.6.19,3.67.58,1.07.38,1.96.91,2.66,1.58.7.67,1.24,1.46,1.61,2.38.37.91.55,1.88.55,2.9s-.17,1.98-.5,2.88c-.34.9-.79,1.72-1.37,2.47-.58.75-1.24,1.44-1.99,2.06-.75.62-1.56,1.18-2.42,1.66l6.58,6.62c.45-.83.82-1.77,1.1-2.81.29-1.04.51-2.06.67-3.05l4.85.62c-.16,1.28-.5,2.7-1.01,4.25-.51,1.55-1.18,3.03-2.02,4.44,1.06,1.18,2.07,2.41,3.05,3.67.98,1.26,1.78,2.52,2.42,3.77h-6.05c-.32-.54-.73-1.14-1.22-1.78-.5-.64-1.02-1.23-1.56-1.78-1.31,1.18-2.82,2.14-4.51,2.88-1.7.74-3.62,1.1-5.76,1.1s-3.94-.29-5.38-.86c-1.44-.58-2.6-1.31-3.48-2.21-.88-.9-1.5-1.89-1.87-2.98-.37-1.09-.55-2.16-.55-3.22Zm5.57-.38c0,.54.1,1.1.31,1.68.21.58.54,1.11,1.01,1.61.46.5,1.07.9,1.82,1.22.75.32,1.66.48,2.71.48,1.44,0,2.74-.22,3.91-.67,1.17-.45,2.17-1.09,3-1.92l-8.45-8.59c-.48.26-.98.56-1.49.91-.51.35-.98.78-1.39,1.27-.42.5-.76,1.07-1.03,1.73-.27.66-.41,1.42-.41,2.28Zm10.42-17.14c0-.93-.3-1.72-.91-2.38-.61-.66-1.49-.98-2.64-.98-1.22,0-2.14.37-2.78,1.1-.64.74-.96,1.66-.96,2.78,0,.93.26,1.85.77,2.76.51.91,1.22,1.78,2.11,2.62.61-.32,1.18-.67,1.7-1.06.53-.38.99-.82,1.39-1.3.4-.48.72-1.01.96-1.58.24-.58.36-1.23.36-1.97Z"/>
      <path class="cls-1" d="m143.9,25.73l-31.03,13.11-2.38-7.13,24.12-9.65-24.12-9.65,2.38-7.13,31.03,13.11v7.33Z"/>
    </g>
  </g>
</svg>